<svg height="1062" node-id="1" sillyvg="true" template-height="1062" template-width="1200" version="1.1" viewBox="0 0 1200 1062" width="1200" xmlns="http://www.w3.org/2000/svg" xmlns:xlink="http://www.w3.org/1999/xlink"><defs node-id="214"></defs><path d="M 594.45 1061.84 C 896.99 1061.84 1142.25 1047.52 1142.25 1029.86 C 1142.25 1012.19 896.99 997.88 594.45 997.88 C 291.91 997.88 46.65 1012.19 46.65 1029.86 C 46.65 1047.52 291.91 1061.84 594.45 1061.84 Z" fill="#f5f5f5" fill-rule="nonzero" node-id="216" stroke="none" target-height="63.964966" target-width="1095.6035" target-x="46.6465" target-y="997.875"/><path d="M 561.67 836.22 L 16.13 836.22 C 11.86 836.21 7.76 834.50 4.73 831.48 C 1.71 828.46 0.01 824.36 0.00 820.08 L 0.00 53.20 C 0.04 48.95 1.76 44.89 4.78 41.90 C 7.80 38.90 11.88 37.22 16.13 37.21 L 561.67 37.21 C 565.95 37.22 570.04 38.92 573.06 41.95 C 576.08 44.97 577.78 49.07 577.78 53.35 L 577.78 820.08 C 577.78 824.36 576.08 828.46 573.06 831.48 C 570.04 834.50 565.95 836.21 561.67 836.22 Z M 16.13 37.78 C 12.04 37.79 8.12 39.41 5.23 42.30 C 2.34 45.20 0.71 49.12 0.71 53.20 L 0.71 820.08 C 0.71 824.17 2.34 828.09 5.23 830.98 C 8.12 833.87 12.04 835.50 16.13 835.51 L 561.67 835.51 C 565.76 835.50 569.68 833.87 572.56 830.98 C 575.45 828.09 577.07 824.17 577.07 820.08 L 577.07 53.20 C 577.07 49.12 575.45 45.20 572.56 42.31 C 569.68 39.41 565.76 37.79 561.67 37.78 L 16.13 37.78 Z" fill="#e6e6e6" fill-rule="nonzero" hidden="true" node-id="218" stroke="none" target-height="799.00214" target-width="577.779" target-x="0" target-y="37.2129" visibility="hidden"/><path d="M 1172.79 836.22 L 627.22 836.22 C 622.95 836.21 618.85 834.50 615.83 831.48 C 612.81 828.46 611.12 824.36 611.12 820.08 L 611.12 53.20 C 611.15 48.95 612.87 44.89 615.88 41.90 C 618.90 38.90 622.97 37.22 627.22 37.21 L 1172.79 37.21 C 1177.04 37.22 1181.12 38.90 1184.13 41.90 C 1187.15 44.89 1188.86 48.95 1188.90 53.20 L 1188.90 820.08 C 1188.90 824.36 1187.20 828.46 1184.18 831.48 C 1181.16 834.50 1177.07 836.21 1172.79 836.22 Z M 627.22 37.78 C 623.13 37.79 619.22 39.41 616.33 42.31 C 613.45 45.20 611.82 49.12 611.82 53.20 L 611.82 820.08 C 611.82 824.17 613.45 828.09 616.33 830.98 C 619.22 833.87 623.13 835.50 627.22 835.51 L 1172.79 835.51 C 1176.88 835.50 1180.81 833.87 1183.70 830.98 C 1186.60 828.09 1188.23 824.17 1188.25 820.08 L 1188.25 53.20 C 1188.23 49.11 1186.60 45.19 1183.70 42.30 C 1180.81 39.41 1176.88 37.79 1172.79 37.78 L 627.22 37.78 Z" fill="#e6e6e6" fill-rule="nonzero" hidden="true" node-id="220" stroke="none" target-height="799.00214" target-width="577.783" target-x="611.117" target-y="37.2129" visibility="hidden"/><path d="M 156.52 979.40 L 40.09 979.40 L 40.09 980.11 L 156.52 980.11 L 156.52 979.40 Z" fill="#e0e0e0" fill-rule="nonzero" node-id="222" stroke="none" target-height="0.70703125" target-width="116.4312" target-x="40.0918" target-y="979.402"/><path d="M 393.85 973.75 L 277.08 973.75 L 277.08 974.46 L 393.85 974.46 L 393.85 973.75 Z" fill="#e0e0e0" fill-rule="nonzero" node-id="224" stroke="none" target-height="0.70599365" target-width="116.77103" target-x="277.08" target-y="973.752"/><path d="M 545.80 973.75 L 517.54 973.75 L 517.54 974.46 L 545.80 974.46 L 545.80 973.75 Z" fill="#e0e0e0" fill-rule="nonzero" node-id="226" stroke="none" target-height="0.70599365" target-width="28.25299" target-x="517.543" target-y="973.752"/><path d="M 263.41 997.88 L 132.73 997.88 L 132.73 998.59 L 263.41 998.59 L 263.41 997.88 Z" fill="#e0e0e0" fill-rule="nonzero" node-id="228" stroke="none" target-height="0.70599365" target-width="130.67201" target-x="132.734" target-y="997.881"/><path d="M 715.37 979.03 L 654.35 979.03 L 654.35 979.74 L 715.37 979.74 L 715.37 979.03 Z" fill="#e0e0e0" fill-rule="nonzero" node-id="230" stroke="none" target-height="0.7060547" target-width="61.026978" target-x="654.346" target-y="979.035"/><path d="M 819.43 979.03 L 740.52 979.03 L 740.52 979.74 L 819.43 979.74 L 819.43 979.03 Z" fill="#e0e0e0" fill-rule="nonzero" node-id="232" stroke="none" target-height="0.7060547" target-width="78.91101" target-x="740.518" target-y="979.035"/><path d="M 1200.00 990.99 L 1023.59 990.99 L 1023.59 991.69 L 1200.00 991.69 L 1200.00 990.99 Z" fill="#e0e0e0" fill-rule="nonzero" node-id="234" stroke="none" target-height="0.7069702" target-width="176.40997" target-x="1023.59" target-y="990.986"/><path d="M 1053.39 194.02 L 918.88 194.02 L 918.88 288.02 L 1053.39 288.02 L 1053.39 194.02 Z" fill="#e6e6e6" fill-rule="nonzero" node-id="236" stroke="none" target-height="93.997986" target-width="134.50903" target-x="918.881" target-y="194.018"/><path d="M 979.54 194.02 L 918.88 194.02 L 918.88 288.02 L 979.54 288.02 L 979.54 194.02 Z" fill="#f0f0f0" fill-rule="nonzero" node-id="238" stroke="none" target-height="93.997986" target-width="60.660034" target-x="918.881" target-y="194.018"/><g node-id="724"><path d="M 949.17 206.76 C 953.13 206.76 957.00 207.94 960.30 210.14 C 963.59 212.34 966.16 215.47 967.67 219.13 C 969.19 222.79 969.59 226.81 968.82 230.70 C 968.04 234.59 966.13 238.15 963.33 240.96 C 960.53 243.76 956.96 245.66 953.08 246.44 C 949.19 247.21 945.16 246.81 941.50 245.30 C 937.84 243.78 934.71 241.21 932.51 237.92 C 930.31 234.63 929.14 230.75 929.14 226.79 C 929.14 221.48 931.25 216.38 935.00 212.63 C 938.76 208.87 943.86 206.76 949.17 206.76 Z" fill="#e0e0e0" fill-opacity="0.4" fill-rule="nonzero" group-id="1" node-id="242" stroke="none" target-height="40.451004" target-width="40.45099" target-x="929.137" target-y="206.76"/></g><path d="M 958.91 265.87 C 958.91 267.80 958.34 269.69 957.27 271.30 C 956.19 272.90 954.67 274.16 952.88 274.90 C 951.09 275.64 949.13 275.83 947.23 275.45 C 945.34 275.08 943.59 274.14 942.23 272.78 C 940.86 271.41 939.93 269.67 939.55 267.77 C 939.17 265.88 939.37 263.91 940.11 262.12 C 940.85 260.34 942.10 258.81 943.71 257.74 C 945.32 256.66 947.21 256.09 949.14 256.09 C 950.42 256.09 951.70 256.34 952.88 256.83 C 954.07 257.32 955.15 258.04 956.06 258.94 C 956.97 259.85 957.69 260.93 958.18 262.12 C 958.67 263.31 958.92 264.58 958.91 265.87 Z" fill="#e0e0e0" fill-rule="nonzero" node-id="245" stroke="none" target-height="19.743988" target-width="19.744019" target-x="939.174" target-y="256.086"/><path d="M 949.03 233.86 C 952.18 233.86 954.74 231.30 954.74 228.15 C 954.74 225.00 952.18 222.44 949.03 222.44 C 945.88 222.44 943.32 225.00 943.32 228.15 C 943.32 231.30 945.88 233.86 949.03 233.86 Z" fill="#fafafa" fill-rule="nonzero" node-id="247" stroke="none" target-height="11.415009" target-width="11.414978" target-x="943.32" target-y="222.441"/><path d="M 766.23 160.34 L 708.05 160.34 L 708.05 288.05 L 766.23 288.05 L 766.23 160.34 Z" fill="#f0f0f0" fill-rule="nonzero" node-id="249" stroke="none" target-height="127.70502" target-width="58.173035" target-x="708.055" target-y="160.34"/><path d="M 841.80 160.34 L 764.62 160.34 L 764.62 288.05 L 841.80 288.05 L 841.80 160.34 Z" fill="#e6e6e6" fill-rule="nonzero" node-id="251" stroke="none" target-height="127.70502" target-width="77.18799" target-x="764.617" target-y="160.34"/><path d="M 736.93 200.88 C 738.53 200.88 740.10 201.35 741.43 202.23 C 742.76 203.12 743.80 204.38 744.42 205.86 C 745.03 207.34 745.20 208.96 744.88 210.53 C 744.57 212.10 743.80 213.54 742.67 214.68 C 741.54 215.81 740.10 216.58 738.53 216.89 C 736.96 217.20 735.33 217.04 733.85 216.42 C 732.38 215.81 731.11 214.77 730.23 213.44 C 729.34 212.10 728.87 210.54 728.88 208.94 C 728.88 206.80 729.74 204.76 731.24 203.25 C 732.75 201.74 734.80 200.89 736.93 200.88 Z" fill="#ffffff" fill-rule="nonzero" node-id="253" stroke="none" target-height="16.324005" target-width="16.324036" target-x="728.871" target-y="200.877"/><path d="M 736.93 188.31 C 737.73 188.31 738.51 188.55 739.17 188.99 C 739.84 189.44 740.36 190.07 740.66 190.81 C 740.97 191.54 741.05 192.35 740.89 193.14 C 740.74 193.92 740.35 194.64 739.79 195.21 C 739.22 195.77 738.50 196.16 737.72 196.31 C 736.93 196.47 736.12 196.39 735.38 196.08 C 734.64 195.78 734.01 195.26 733.57 194.59 C 733.13 193.93 732.89 193.15 732.89 192.35 C 732.89 191.82 732.99 191.29 733.20 190.81 C 733.40 190.31 733.70 189.87 734.07 189.49 C 734.45 189.12 734.89 188.82 735.38 188.62 C 735.87 188.41 736.40 188.31 736.93 188.31 Z" fill="#ffffff" fill-rule="nonzero" node-id="255" stroke="none" target-height="8.1579895" target-width="8.15802" target-x="732.889" target-y="188.311"/><path d="M 736.93 176.10 C 737.73 176.10 738.51 176.34 739.17 176.79 C 739.84 177.23 740.36 177.86 740.66 178.60 C 740.97 179.34 741.05 180.15 740.89 180.93 C 740.74 181.72 740.35 182.44 739.79 183.00 C 739.22 183.57 738.50 183.95 737.72 184.11 C 736.93 184.26 736.12 184.18 735.38 183.88 C 734.64 183.57 734.01 183.06 733.57 182.39 C 733.13 181.73 732.89 180.94 732.89 180.15 C 732.89 179.62 732.99 179.09 733.20 178.60 C 733.40 178.11 733.70 177.66 734.07 177.29 C 734.45 176.91 734.89 176.62 735.38 176.41 C 735.87 176.21 736.40 176.10 736.93 176.10 Z" fill="#ffffff" fill-rule="nonzero" node-id="257" stroke="none" target-height="8.159012" target-width="8.15802" target-x="732.889" target-y="176.105"/><path d="M 840.45 231.96 L 709.35 231.96 L 709.35 233.97 L 840.45 233.97 L 840.45 231.96 Z" fill="#e0e0e0" fill-rule="nonzero" node-id="259" stroke="none" target-height="2.0059967" target-width="131.09497" target-x="709.354" target-y="231.963"/><path d="M 840.45 243.29 L 709.35 243.29 L 709.35 245.30 L 840.45 245.30 L 840.45 243.29 Z" fill="#e0e0e0" fill-rule="nonzero" node-id="261" stroke="none" target-height="2.0059967" target-width="131.09497" target-x="709.354" target-y="243.291"/><path d="M 840.45 254.62 L 709.35 254.62 L 709.35 256.63 L 840.45 256.63 L 840.45 254.62 Z" fill="#e0e0e0" fill-rule="nonzero" node-id="263" stroke="none" target-height="2.006012" target-width="131.09497" target-x="709.354" target-y="254.621"/><path d="M 840.45 265.95 L 709.35 265.95 L 709.35 267.96 L 840.45 267.96 L 840.45 265.95 Z" fill="#e0e0e0" fill-rule="nonzero" node-id="265" stroke="none" target-height="2.006012" target-width="131.09497" target-x="709.354" target-y="265.951"/><path d="M 840.45 277.28 L 709.35 277.28 L 709.35 279.29 L 840.45 279.29 L 840.45 277.28 Z" fill="#e0e0e0" fill-rule="nonzero" node-id="267" stroke="none" target-height="2.0059814" target-width="131.09497" target-x="709.354" target-y="277.281"/><path d="M 738.31 235.41 L 732.77 235.41 L 732.77 240.95 L 738.31 240.95 L 738.31 235.41 Z" fill="#e0e0e0" fill-rule="nonzero" node-id="269" stroke="none" target-height="5.5379944" target-width="5.537964" target-x="732.775" target-y="235.41"/><path d="M 738.31 247.33 L 732.77 247.33 L 732.77 252.87 L 738.31 252.87 L 738.31 247.33 Z" fill="#e0e0e0" fill-rule="nonzero" node-id="271" stroke="none" target-height="5.5379944" target-width="5.537964" target-x="732.775" target-y="247.332"/><path d="M 738.31 258.07 L 732.77 258.07 L 732.77 263.61 L 738.31 263.61 L 738.31 258.07 Z" fill="#e0e0e0" fill-rule="nonzero" node-id="273" stroke="none" target-height="5.5379944" target-width="5.537964" target-x="732.775" target-y="258.068"/><path d="M 738.31 269.65 L 732.77 269.65 L 732.77 275.19 L 738.31 275.19 L 738.31 269.65 Z" fill="#e0e0e0" fill-rule="nonzero" node-id="275" stroke="none" target-height="5.5379944" target-width="5.537964" target-x="732.775" target-y="269.652"/><path d="M 738.31 280.90 L 732.77 280.90 L 732.77 286.43 L 738.31 286.43 L 738.31 280.90 Z" fill="#e0e0e0" fill-rule="nonzero" node-id="277" stroke="none" target-height="5.5379944" target-width="5.537964" target-x="732.775" target-y="280.896"/><path d="M 596.91 413.75 L 594.08 413.75 L 594.08 305.56 C 594.09 299.72 596.41 294.12 600.54 289.99 C 604.68 285.86 610.28 283.53 616.12 283.52 L 709.36 283.52 L 709.36 286.35 L 616.12 286.35 C 611.03 286.36 606.14 288.38 602.54 291.99 C 598.94 295.59 596.91 300.47 596.91 305.56 L 596.91 413.75 Z" fill="#e0e0e0" fill-rule="nonzero" node-id="279" stroke="none" target-height="130.22" target-width="115.27301" target-x="594.082" target-y="283.525"/><path d="M 591.25 413.94 L 588.43 413.94 L 588.43 304.77 C 588.44 297.68 591.26 290.89 596.27 285.88 C 601.28 280.87 608.07 278.05 615.16 278.04 L 709.35 278.04 L 709.35 280.87 L 615.16 280.87 C 608.82 280.88 602.75 283.40 598.26 287.88 C 593.78 292.36 591.26 298.43 591.25 304.77 L 591.25 413.94 Z" fill="#e0e0e0" fill-rule="nonzero" node-id="281" stroke="none" target-height="135.89801" target-width="120.92401" target-x="588.43" target-y="278.043"/><path d="M 281.88 142.51 L 193.42 142.51 L 193.42 236.68 L 281.88 236.68 L 281.88 142.51 Z" fill="#e6e6e6" fill-rule="nonzero" node-id="283" stroke="none" target-height="94.168" target-width="88.461" target-x="193.422" target-y="142.512"/><path d="M 304.54 142.51 L 281.88 142.51 L 281.88 236.68 L 304.54 236.68 L 304.54 142.51 Z" fill="#f5f5f5" fill-rule="nonzero" node-id="285" stroke="none" target-height="94.168" target-width="22.658997" target-x="281.883" target-y="142.512"/><path d="M 236.68 127.99 L 170.23 127.99 L 170.23 236.68 L 236.68 236.68 L 236.68 127.99 Z" fill="#e6e6e6" fill-rule="nonzero" node-id="287" stroke="none" target-height="108.689995" target-width="66.45099" target-x="170.227" target-y="127.99"/><path d="M 255.86 127.99 L 236.65 127.99 L 236.65 236.68 L 255.86 236.68 L 255.86 127.99 Z" fill="#f5f5f5" fill-rule="nonzero" node-id="289" stroke="none" target-height="108.689995" target-width="19.212997" target-x="236.648" target-y="127.99"/><path d="M 217.10 142.51 L 161.07 142.51 L 161.07 236.68 L 217.10 236.68 L 217.10 142.51 Z" fill="#ebebeb" fill-rule="nonzero" node-id="291" stroke="none" target-height="94.168" target-width="56.026" target-x="161.072" target-y="142.512"/><path d="M 229.90 142.51 L 217.10 142.51 L 217.10 236.68 L 229.90 236.68 L 229.90 142.51 Z" fill="#f5f5f5" fill-rule="nonzero" node-id="293" stroke="none" target-height="94.168" target-width="12.797989" target-x="217.098" target-y="142.512"/><path d="M 171.24 158.45 L 97.76 158.45 L 97.76 236.68 L 171.24 236.68 L 171.24 158.45 Z" fill="#e6e6e6" fill-rule="nonzero" node-id="295" stroke="none" target-height="78.23399" target-width="73.4871" target-x="97.7559" target-y="158.447"/><path d="M 190.06 158.45 L 171.24 158.45 L 171.24 236.68 L 190.06 236.68 L 190.06 158.45 Z" fill="#f5f5f5" fill-rule="nonzero" node-id="297" stroke="none" target-height="78.23399" target-width="18.817001" target-x="171.242" target-y="158.447"/><path d="M 133.69 146.38 L 78.49 146.38 L 78.49 236.68 L 133.69 236.68 L 133.69 146.38 Z" fill="#e6e6e6" fill-rule="nonzero" node-id="299" stroke="none" target-height="90.297" target-width="55.20671" target-x="78.4883" target-y="146.383"/><path d="M 149.63 146.38 L 133.67 146.38 L 133.67 236.68 L 149.63 236.68 L 149.63 146.38 Z" fill="#f5f5f5" fill-rule="nonzero" node-id="301" stroke="none" target-height="90.297" target-width="15.962997" target-x="133.666" target-y="146.383"/><path d="M 117.42 158.45 L 63.79 158.45 L 63.79 236.68 L 117.42 236.68 L 117.42 158.45 Z" fill="#e6e6e6" fill-rule="nonzero" node-id="303" stroke="none" target-height="78.23399" target-width="53.6251" target-x="63.7949" target-y="158.447"/><path d="M 128.07 158.45 L 117.45 158.45 L 117.45 236.68 L 128.07 236.68 L 128.07 158.45 Z" fill="#f0f0f0" fill-rule="nonzero" node-id="305" stroke="none" target-height="78.23399" target-width="10.623009" target-x="117.449" target-y="158.447"/><path d="M 1.13 263.89 L 577.50 263.89 L 577.50 236.62 L 1.13 236.62 L 1.13 263.89 Z" fill="#e6e6e6" fill-rule="nonzero" node-id="307" stroke="none" target-height="27.265015" target-width="576.366" target-x="1.12994" target-y="236.624"/><path d="M 104.56 264.54 L 136.43 264.54 L 113.21 299.60 L 104.56 299.60 L 104.56 264.54 Z" fill="#e0e0e0" fill-rule="nonzero" node-id="309" stroke="none" target-height="35.06201" target-width="31.870003" target-x="104.564" target-y="264.539"/><path d="M 104.56 264.54 L 99.96 264.54 L 99.96 299.60 L 104.56 299.60 L 104.56 264.54 Z" fill="#e0e0e0" fill-rule="nonzero" node-id="311" stroke="none" target-height="35.06201" target-width="4.6050034" target-x="99.959" target-y="264.539"/><path d="M 462.53 264.54 L 494.43 264.54 L 471.21 299.60 L 462.53 299.60 L 462.53 264.54 Z" fill="#e0e0e0" fill-rule="nonzero" node-id="313" stroke="none" target-height="35.06201" target-width="31.89801" target-x="462.533" target-y="264.539"/><path d="M 462.56 264.54 L 457.96 264.54 L 457.96 299.60 L 462.56 299.60 L 462.56 264.54 Z" fill="#e0e0e0" fill-rule="nonzero" node-id="315" stroke="none" target-height="35.06201" target-width="4.605011" target-x="457.957" target-y="264.539"/><path d="M 1188.42 288.05 L 612.05 288.05 L 612.05 315.31 L 1188.42 315.31 L 1188.42 288.05 Z" fill="#e6e6e6" fill-rule="nonzero" node-id="317" stroke="none" target-height="27.263977" target-width="576.369" target-x="612.051" target-y="288.045"/><path d="M 1085.01 350.99 L 1076.34 350.99 L 1053.11 315.93 L 1085.01 315.93 L 1085.01 350.99 Z" fill="#e0e0e0" fill-rule="nonzero" node-id="319" stroke="none" target-height="35.06198" target-width="31.900024" target-x="1053.11" target-y="315.932"/><path d="M 1089.62 315.93 L 1085.01 315.93 L 1085.01 350.99 L 1089.62 350.99 L 1089.62 315.93 Z" fill="#e0e0e0" fill-rule="nonzero" node-id="321" stroke="none" target-height="35.06198" target-width="4.6099854" target-x="1085.01" target-y="315.932"/><path d="M 727.01 350.99 L 718.34 350.99 L 695.12 315.93 L 727.01 315.93 L 727.01 350.99 Z" fill="#e0e0e0" fill-rule="nonzero" node-id="323" stroke="none" target-height="35.06198" target-width="31.89801" target-x="695.115" target-y="315.932"/><path d="M 731.62 315.93 L 727.01 315.93 L 727.01 350.99 L 731.62 350.99 L 731.62 315.93 Z" fill="#e0e0e0" fill-rule="nonzero" node-id="325" stroke="none" target-height="35.06198" target-width="4.6049805" target-x="727.012" target-y="315.932"/><path d="M 445.98 181.76 C 445.98 177.71 445.38 173.68 444.20 169.81 L 454.68 160.59 L 448.10 149.15 L 434.87 153.64 C 429.31 147.69 422.10 143.52 414.17 141.66 L 411.34 127.99 L 398.14 127.99 L 395.32 141.66 C 387.39 143.53 380.20 147.69 374.64 153.64 L 361.39 149.15 L 354.81 160.59 L 365.29 169.81 C 362.91 177.60 362.91 185.92 365.29 193.71 L 354.81 202.92 L 361.39 214.36 L 374.64 209.87 C 380.20 215.82 387.39 219.99 395.32 221.85 L 398.14 235.52 L 411.34 235.52 L 414.17 221.85 C 422.10 219.99 429.31 215.82 434.87 209.87 L 448.10 214.36 L 454.68 202.92 L 444.20 193.71 C 445.38 189.83 445.98 185.81 445.98 181.76 Z M 404.84 203.96 C 400.61 203.96 396.48 202.71 392.96 200.36 C 389.44 198.01 386.70 194.67 385.08 190.76 C 383.46 186.85 383.04 182.55 383.86 178.40 C 384.69 174.25 386.73 170.44 389.72 167.45 C 392.71 164.46 396.52 162.42 400.67 161.60 C 404.82 160.77 409.12 161.20 413.03 162.82 C 416.93 164.44 420.27 167.18 422.62 170.69 C 424.98 174.21 426.23 178.34 426.23 182.58 C 426.23 188.25 423.98 193.69 419.96 197.70 C 415.95 201.71 410.51 203.96 404.84 203.96 Z" fill="#f0f0f0" fill-rule="nonzero" node-id="327" stroke="none" target-height="107.532005" target-width="99.875" target-x="354.805" target-y="127.99"/><path d="M 517.35 188.68 C 515.97 186.40 514.26 184.34 512.26 182.57 L 515.09 173.79 L 507.46 169.63 L 501.55 176.70 C 496.39 175.26 490.92 175.40 485.84 177.09 L 479.60 170.37 L 472.17 174.89 L 475.33 183.51 C 471.52 187.28 468.91 192.10 467.82 197.35 L 458.86 199.38 L 459.09 208.06 L 468.16 209.64 C 469.51 214.82 472.36 219.49 476.35 223.06 L 473.52 231.85 L 481.15 236.00 L 487.06 228.94 C 492.23 230.35 497.70 230.21 502.80 228.54 L 509.04 235.27 L 516.44 230.75 L 513.28 222.10 C 517.09 218.34 519.70 213.53 520.79 208.28 L 529.75 206.25 L 529.52 197.55 L 520.48 196.00 C 519.82 193.41 518.76 190.94 517.35 188.68 Z M 501.89 215.29 C 499.51 216.76 496.75 217.48 493.95 217.38 C 491.16 217.27 488.46 216.34 486.19 214.69 C 483.93 213.05 482.20 210.78 481.24 208.15 C 480.27 205.53 480.10 202.68 480.75 199.96 C 481.41 197.24 482.85 194.77 484.91 192.88 C 486.96 190.98 489.54 189.74 492.30 189.30 C 495.06 188.87 497.89 189.27 500.43 190.44 C 502.97 191.62 505.10 193.52 506.55 195.91 C 508.50 199.10 509.10 202.93 508.22 206.56 C 507.35 210.20 505.07 213.33 501.89 215.29 Z" fill="#f0f0f0" fill-rule="nonzero" node-id="329" stroke="none" target-height="66.367004" target-width="70.88803" target-x="458.861" target-y="169.635"/><path d="M 1171.32 642.93 L 19.67 642.93 L 19.67 657.43 L 1171.32 657.43 L 1171.32 642.93 Z" fill="#429cfd" fill-rule="nonzero" node-id="331" stroke="none" target-height="14.494019" target-width="1151.6539" target-x="19.666" target-y="642.932"/><path d="M 88.27 653.33 L 88.27 998.98 L 97.25 998.98 L 108.55 653.33 L 88.27 653.33 Z" fill="#429cfd" fill-rule="nonzero" node-id="333" stroke="none" target-height="345.65002" target-width="20.2854" target-x="88.2656" target-y="653.328"/><path d="M 194.33 664.63 L 194.33 984.85 L 203.31 984.85 L 214.61 664.63 L 194.33 664.63 Z" fill="#429cfd" fill-rule="nonzero" node-id="335" stroke="none" target-height="320.22205" target-width="20.285995" target-x="194.328" target-y="664.631"/><path d="M 194.33 664.63 L 194.33 984.85 L 203.31 984.85 L 214.61 664.63 L 194.33 664.63 Z" fill="#000000" fill-opacity="0.5" fill-rule="nonzero" group-id="2" node-id="339" stroke="none" target-height="320.22205" target-width="20.285995" target-x="194.328" target-y="664.631"/><path d="M 1106.82 653.33 L 1106.82 998.98 L 1097.87 998.98 L 1086.54 653.33 L 1106.82 653.33 Z" fill="#429cfd" fill-rule="nonzero" node-id="342" stroke="none" target-height="345.65002" target-width="20.279907" target-x="1086.54" target-y="653.328"/><path d="M 1000.76 664.63 L 1000.76 984.85 L 991.78 984.85 L 980.48 664.63 L 1000.76 664.63 Z" fill="#429cfd" fill-rule="nonzero" node-id="344" stroke="none" target-height="320.22205" target-width="20.285034" target-x="980.475" target-y="664.631"/><path d="M 1000.76 664.63 L 1000.76 984.85 L 991.78 984.85 L 980.48 664.63 L 1000.76 664.63 Z" fill="#000000" fill-opacity="0.5" fill-rule="nonzero" group-id="3" node-id="348" stroke="none" target-height="320.22205" target-width="20.285034" target-x="980.475" target-y="664.631"/><path d="M 1127.31 672.94 L 67.08 672.94 L 43.62 657.43 L 1150.76 657.43 L 1127.31 672.94 Z" fill="#429cfd" fill-rule="nonzero" node-id="351" stroke="none" target-height="15.510986" target-width="1107.135" target-x="43.625" target-y="657.426"/><path d="M 1127.31 672.94 L 67.08 672.94 L 43.62 657.43 L 1150.76 657.43 L 1127.31 672.94 Z" fill="#000000" fill-opacity="0.5" fill-rule="nonzero" group-id="4" node-id="355" stroke="none" target-height="15.510986" target-width="1107.135" target-x="43.625" target-y="657.426"/><path d="M 95.35 598.49 L 95.35 609.79 C 95.35 611.67 96.09 613.47 97.42 614.79 L 106.37 623.75 C 107.17 624.54 108.13 625.13 109.20 625.48 C 111.04 629.45 113.99 632.81 117.68 635.17 C 121.38 637.53 125.67 638.78 130.05 638.78 L 133.41 638.78 C 136.45 638.80 139.47 638.22 142.28 637.06 C 145.09 635.91 147.65 634.20 149.79 632.05 C 151.94 629.90 153.65 627.35 154.80 624.54 C 155.96 621.73 156.54 618.71 156.52 615.67 L 156.52 589.31 L 107.14 589.31 L 107.14 591.46 L 102.42 591.46 C 100.55 591.46 98.76 592.20 97.43 593.52 C 96.11 594.84 95.36 596.62 95.35 598.49 Z M 101.00 598.49 C 101.00 598.31 101.04 598.13 101.11 597.96 C 101.18 597.79 101.29 597.63 101.42 597.50 C 101.55 597.38 101.71 597.27 101.88 597.21 C 102.05 597.14 102.23 597.11 102.42 597.11 L 107.14 597.11 L 107.14 615.67 C 107.14 615.92 107.14 616.18 107.14 616.43 L 101.48 610.78 C 101.35 610.66 101.24 610.50 101.17 610.33 C 101.09 610.16 101.06 609.98 101.06 609.79 L 101.00 598.49 Z" fill="#429cfd" fill-rule="nonzero" node-id="358" stroke="none" target-height="49.49005" target-width="61.1877" target-x="95.3533" target-y="589.311"/><path d="M 95.35 598.49 L 95.35 609.79 C 95.35 611.67 96.09 613.47 97.42 614.79 L 106.37 623.75 C 107.17 624.54 108.13 625.13 109.20 625.48 C 111.04 629.45 113.99 632.81 117.68 635.17 C 121.38 637.53 125.67 638.78 130.05 638.78 L 133.41 638.78 C 136.45 638.80 139.47 638.22 142.28 637.06 C 145.09 635.91 147.65 634.20 149.79 632.05 C 151.94 629.90 153.65 627.35 154.80 624.54 C 155.96 621.73 156.54 618.71 156.52 615.67 L 156.52 589.31 L 107.14 589.31 L 107.14 591.46 L 102.42 591.46 C 100.55 591.46 98.76 592.20 97.43 593.52 C 96.11 594.84 95.36 596.62 95.35 598.49 Z M 101.00 598.49 C 101.00 598.31 101.04 598.13 101.11 597.96 C 101.18 597.79 101.29 597.63 101.42 597.50 C 101.55 597.38 101.71 597.27 101.88 597.21 C 102.05 597.14 102.23 597.11 102.42 597.11 L 107.14 597.11 L 107.14 615.67 C 107.14 615.92 107.14 616.18 107.14 616.43 L 101.48 610.78 C 101.35 610.66 101.24 610.50 101.17 610.33 C 101.09 610.16 101.06 609.98 101.06 609.79 L 101.00 598.49 Z" fill="#ffffff" fill-opacity="0.5" fill-rule="nonzero" group-id="5" node-id="362" stroke="none" target-height="49.49005" target-width="61.1877" target-x="95.3533" target-y="589.311"/><path d="M 168.22 642.60 L 97.19 642.60 C 93.94 642.31 90.92 640.82 88.71 638.41 L 176.58 638.41 C 174.41 640.80 171.43 642.29 168.22 642.60 Z" fill="#429cfd" fill-rule="nonzero" node-id="365" stroke="none" target-height="4.182007" target-width="87.8672" target-x="88.7148" target-y="638.414"/><path d="M 168.22 642.60 L 97.19 642.60 C 93.94 642.31 90.92 640.82 88.71 638.41 L 176.58 638.41 C 174.41 640.80 171.43 642.29 168.22 642.60 Z" fill="#ffffff" fill-opacity="0.5" fill-rule="nonzero" group-id="6" node-id="369" stroke="none" target-height="4.182007" target-width="87.8672" target-x="88.7148" target-y="638.414"/><path d="M 1123.80 608.01 C 1123.43 596.71 1114.90 594.06 1103.77 592.78 L 1103.77 588.69 C 1103.75 588.21 1103.55 587.76 1103.21 587.44 C 1102.87 587.11 1102.41 586.93 1101.93 586.94 L 1063.45 586.94 C 1063.21 586.93 1062.98 586.97 1062.75 587.05 C 1062.53 587.14 1062.33 587.26 1062.16 587.43 C 1061.98 587.59 1061.84 587.78 1061.75 588.00 C 1061.65 588.22 1061.59 588.45 1061.59 588.69 L 1061.59 642.12 L 1103.80 642.12 L 1103.80 636.27 C 1114.93 635.02 1123.46 619.26 1123.80 608.01 Z M 1103.77 629.37 L 1103.77 599.71 C 1111.96 600.89 1117.61 602.02 1116.40 610.22 C 1115.44 616.77 1110.29 628.47 1103.77 629.37 Z" fill="#429cfd" fill-rule="nonzero" node-id="372" stroke="none" target-height="55.185974" target-width="62.210083" target-x="1061.59" target-y="586.929"/><path d="M 1123.80 608.01 C 1123.43 596.71 1114.90 594.06 1103.77 592.78 L 1103.77 588.69 C 1103.76 588.21 1103.55 587.76 1103.21 587.44 C 1102.87 587.11 1102.41 586.93 1101.93 586.94 L 1063.45 586.94 C 1063.22 586.93 1062.98 586.97 1062.76 587.05 C 1062.53 587.14 1062.33 587.26 1062.16 587.43 C 1061.98 587.59 1061.84 587.78 1061.75 588.00 C 1061.65 588.22 1061.60 588.45 1061.59 588.69 L 1061.59 642.12 L 1103.80 642.12 L 1103.80 636.27 C 1114.93 635.02 1123.46 619.26 1123.80 608.01 Z M 1103.77 629.37 L 1103.77 599.71 C 1111.96 600.89 1117.61 602.02 1116.40 610.22 C 1115.44 616.77 1110.30 628.47 1103.77 629.37 Z" fill="#ffffff" fill-opacity="0.5" fill-rule="nonzero" group-id="7" node-id="376" stroke="none" target-height="55.185974" target-width="62.210083" target-x="1061.59" target-y="586.929"/><path d="M 611.09 574.02 L 577.78 574.02 L 577.78 641.69 L 611.09 641.69 L 611.09 574.02 Z" fill="#429cfd" fill-rule="nonzero" node-id="379" stroke="none" target-height="67.66699" target-width="33.311035" target-x="577.779" target-y="574.025"/><path d="M 611.09 574.02 L 577.78 574.02 L 577.78 641.69 L 611.09 641.69 L 611.09 574.02 Z" fill="#ffffff" fill-opacity="0.5" fill-rule="nonzero" group-id="8" node-id="383" stroke="none" target-height="67.66699" target-width="33.311035" target-x="577.779" target-y="574.025"/><path d="M 626.15 642.91 L 563.03 642.91 L 578.43 629.37 L 610.75 629.37 L 626.15 642.91 Z" fill="#429cfd" fill-rule="nonzero" node-id="386" stroke="none" target-height="13.53302" target-width="63.11798" target-x="563.031" target-y="629.373"/><path d="M 626.15 642.91 L 563.03 642.91 L 578.43 629.37 L 610.75 629.37 L 626.15 642.91 Z" fill="#ffffff" fill-opacity="0.5" fill-rule="nonzero" group-id="9" node-id="390" stroke="none" target-height="13.53302" target-width="63.11798" target-x="563.031" target-y="629.373"/><path d="M 764.90 621.01 L 607.13 621.01 L 635.64 642.99 L 793.38 642.99 L 764.90 621.01 Z" fill="#429cfd" fill-rule="nonzero" node-id="393" stroke="none" target-height="21.981018" target-width="186.245" target-x="607.133" target-y="621.01"/><path d="M 764.90 621.01 L 607.13 621.01 L 635.64 642.99 L 793.38 642.99 L 764.90 621.01 Z" fill="#ffffff" fill-opacity="0.4" fill-rule="nonzero" group-id="10" node-id="397" stroke="none" target-height="21.981018" target-width="186.245" target-x="607.133" target-y="621.01"/><path d="M 610.78 642.99 L 607.13 621.01 L 635.64 642.99 L 610.78 642.99 Z" fill="#429cfd" fill-rule="nonzero" node-id="400" stroke="none" target-height="21.981018" target-width="28.507019" target-x="607.133" target-y="621.01"/><path d="M 610.78 642.99 L 607.13 621.01 L 635.64 642.99 L 610.78 642.99 Z" fill="#000000" fill-opacity="0.5" fill-rule="nonzero" group-id="11" node-id="404" stroke="none" target-height="21.981018" target-width="28.507019" target-x="607.133" target-y="621.01"/><path d="M 737.21 413.86 L 450.07 413.86 C 447.06 413.86 444.62 416.30 444.62 419.31 L 444.62 595.38 C 444.62 598.40 447.06 600.84 450.07 600.84 L 737.21 600.84 C 740.22 600.84 742.66 598.40 742.66 595.38 L 742.66 419.31 C 742.66 416.30 740.22 413.86 737.21 413.86 Z" fill="#429cfd" fill-rule="nonzero" node-id="407" stroke="none" target-height="186.97998" target-width="298.04398" target-x="444.621" target-y="413.857"/><path d="M 731.53 425.56 L 455.44 425.56 L 455.44 588.49 L 731.53 588.49 L 731.53 425.56 Z" fill="#000000" fill-opacity="0.5" fill-rule="nonzero" group-id="12" node-id="411" stroke="none" target-height="162.93604" target-width="276.09097" target-x="455.441" target-y="425.555"/><path d="M 722.75 459.06 L 583.43 459.06 L 583.43 554.98 L 722.75 554.98 L 722.75 459.06 Z" fill="#000000" fill-opacity="0.4" fill-rule="nonzero" group-id="13" node-id="416" stroke="none" target-height="95.91998" target-width="139.31598" target-x="583.43" target-y="459.062"/><path d="M 722.75 459.06 L 583.43 459.06 L 583.43 467.85 L 722.75 467.85 L 722.75 459.06 Z" fill="#429cfd" fill-rule="nonzero" node-id="419" stroke="none" target-height="8.786987" target-width="139.31598" target-x="583.43" target-y="459.062"/><path d="M 608.97 512.12 L 631.74 524.72 C 632.61 525.14 633.39 525.73 634.03 526.45 C 634.42 527.01 634.62 527.68 634.60 528.37 C 634.60 528.85 634.50 529.32 634.32 529.76 C 634.13 530.20 633.86 530.60 633.52 530.94 C 633.21 531.28 632.83 531.54 632.40 531.73 C 631.98 531.91 631.53 532.01 631.07 532.01 C 630.05 531.90 629.08 531.54 628.24 530.97 L 598.86 514.64 C 598.39 514.40 597.99 514.04 597.71 513.60 C 597.44 513.15 597.29 512.63 597.29 512.11 C 597.29 511.58 597.44 511.07 597.71 510.62 C 597.99 510.17 598.39 509.81 598.86 509.58 L 628.24 493.25 C 629.09 492.70 630.06 492.36 631.07 492.26 C 631.53 492.25 631.99 492.34 632.42 492.52 C 632.85 492.70 633.23 492.97 633.55 493.31 C 633.89 493.63 634.17 494.03 634.35 494.47 C 634.54 494.90 634.63 495.37 634.62 495.85 C 634.65 496.53 634.45 497.21 634.06 497.77 C 633.42 498.49 632.64 499.07 631.77 499.49 L 608.97 512.12 Z" fill="#ffffff" fill-rule="nonzero" node-id="421" stroke="none" target-height="39.759033" target-width="37.35797" target-x="597.291" target-y="492.253"/><path d="M 667.57 488.59 L 644.96 537.15 C 644.60 538.04 644.08 538.84 643.41 539.53 C 642.80 540.01 642.04 540.26 641.26 540.23 C 640.80 540.24 640.34 540.15 639.92 539.98 C 639.49 539.80 639.10 539.55 638.78 539.22 C 638.45 538.92 638.18 538.56 637.99 538.16 C 637.81 537.75 637.71 537.32 637.70 536.87 C 637.78 535.88 638.07 534.92 638.55 534.05 L 661.15 485.51 C 661.51 484.64 662.01 483.85 662.65 483.16 C 663.27 482.68 664.04 482.42 664.83 482.43 C 665.28 482.42 665.74 482.51 666.16 482.68 C 666.58 482.86 666.97 483.12 667.28 483.44 C 667.60 483.74 667.86 484.10 668.03 484.50 C 668.21 484.90 668.30 485.33 668.30 485.76 C 668.26 486.75 668.01 487.71 667.57 488.59 Z" fill="#ffffff" fill-rule="nonzero" node-id="423" stroke="none" target-height="57.836975" target-width="30.598022" target-x="637.703" target-y="482.419"/><path d="M 695.90 512.12 L 673.13 499.49 C 672.27 499.06 671.50 498.48 670.84 497.77 C 670.45 497.21 670.25 496.53 670.28 495.85 C 670.27 495.37 670.37 494.90 670.55 494.47 C 670.74 494.03 671.01 493.63 671.35 493.31 C 671.68 492.97 672.07 492.70 672.50 492.52 C 672.93 492.34 673.40 492.25 673.87 492.26 C 674.87 492.37 675.84 492.71 676.69 493.25 L 706.08 509.58 C 706.55 509.81 706.94 510.17 707.22 510.62 C 707.50 511.07 707.64 511.58 707.64 512.11 C 707.64 512.63 707.50 513.15 707.22 513.60 C 706.94 514.04 706.55 514.40 706.08 514.64 L 676.69 530.97 C 675.85 531.53 674.88 531.89 673.87 532.01 C 673.39 532.02 672.92 531.92 672.48 531.73 C 672.04 531.54 671.65 531.26 671.33 530.91 C 670.99 530.58 670.73 530.18 670.55 529.74 C 670.37 529.31 670.28 528.84 670.28 528.37 C 670.26 527.68 670.46 527.01 670.84 526.45 C 671.50 525.74 672.27 525.16 673.13 524.72 L 695.90 512.12 Z" fill="#ffffff" fill-rule="nonzero" node-id="425" stroke="none" target-height="39.764008" target-width="37.385986" target-x="670.255" target-y="492.254"/><path d="M 476.21 440.59 L 466.77 440.59 L 466.77 450.02 L 476.21 450.02 L 476.21 440.59 Z" fill="#ffffff" fill-rule="nonzero" node-id="427" stroke="none" target-height="9.437012" target-width="9.437012" target-x="466.771" target-y="440.586"/><path d="M 476.21 465.02 L 466.77 465.02 L 466.77 474.46 L 476.21 474.46 L 476.21 465.02 Z" fill="#ffffff" fill-rule="nonzero" node-id="429" stroke="none" target-height="9.436981" target-width="9.437012" target-x="466.771" target-y="465.023"/><path d="M 476.21 489.44 L 466.77 489.44 L 466.77 498.87 L 476.21 498.87 L 476.21 489.44 Z" fill="#ffffff" fill-rule="nonzero" node-id="431" stroke="none" target-height="9.436005" target-width="9.437012" target-x="466.771" target-y="489.436"/><path d="M 476.21 513.85 L 466.77 513.85 L 466.77 523.28 L 476.21 523.28 L 476.21 513.85 Z" fill="#ffffff" fill-rule="nonzero" node-id="433" stroke="none" target-height="9.435974" target-width="9.437012" target-x="466.771" target-y="513.846"/><path d="M 476.21 538.26 L 466.77 538.26 L 466.77 547.69 L 476.21 547.69 L 476.21 538.26 Z" fill="#ffffff" fill-rule="nonzero" node-id="435" stroke="none" target-height="9.436035" target-width="9.437012" target-x="466.771" target-y="538.256"/><path d="M 476.21 562.67 L 466.77 562.67 L 466.77 572.11 L 476.21 572.11 L 476.21 562.67 Z" fill="#ffffff" fill-rule="nonzero" node-id="437" stroke="none" target-height="9.436951" target-width="9.437012" target-x="466.771" target-y="562.668"/><path d="M 522.77 442.73 L 485.16 442.73 L 485.16 445.56 L 522.77 445.56 L 522.77 442.73 Z" fill="#ffffff" fill-rule="nonzero" node-id="439" stroke="none" target-height="2.8260193" target-width="37.60498" target-x="485.164" target-y="442.732"/><path d="M 507.31 467.20 L 493.92 467.20 L 493.92 470.02 L 507.31 470.02 L 507.31 467.20 Z" fill="#ffffff" fill-rule="nonzero" node-id="441" stroke="none" target-height="2.8259888" target-width="13.391998" target-x="493.922" target-y="467.199"/><path d="M 565.60 494.66 L 552.21 494.66 L 552.21 497.49 L 565.60 497.49 L 565.60 494.66 Z" fill="#ffffff" fill-rule="nonzero" node-id="443" stroke="none" target-height="2.8250122" target-width="13.392029" target-x="552.209" target-y="494.662"/><path d="M 507.31 516.45 L 493.92 516.45 L 493.92 519.27 L 507.31 519.27 L 507.31 516.45 Z" fill="#ffffff" fill-rule="nonzero" node-id="445" stroke="none" target-height="2.8259888" target-width="13.391998" target-x="493.922" target-y="516.445"/><path d="M 526.61 516.45 L 513.22 516.45 L 513.22 519.27 L 526.61 519.27 L 526.61 516.45 Z" fill="#ffffff" fill-rule="nonzero" node-id="447" stroke="none" target-height="2.8259888" target-width="13.391968" target-x="513.221" target-y="516.445"/><path d="M 547.43 494.66 L 513.22 494.66 L 513.22 497.49 L 547.43 497.49 L 547.43 494.66 Z" fill="#ffffff" fill-rule="nonzero" node-id="449" stroke="none" target-height="2.8250122" target-width="34.21399" target-x="513.221" target-y="494.662"/><path d="M 555.68 516.45 L 533.17 516.45 L 533.17 519.27 L 555.68 519.27 L 555.68 516.45 Z" fill="#ffffff" fill-rule="nonzero" node-id="451" stroke="none" target-height="2.8259888" target-width="22.518005" target-x="533.166" target-y="516.445"/><path d="M 546.47 568.80 L 533.08 568.80 L 533.08 571.62 L 546.47 571.62 L 546.47 568.80 Z" fill="#ffffff" fill-rule="nonzero" node-id="453" stroke="none" target-height="2.8250122" target-width="13.392029" target-x="533.082" target-y="568.799"/><path d="M 565.80 568.80 L 552.41 568.80 L 552.41 571.62 L 565.80 571.62 L 565.80 568.80 Z" fill="#ffffff" fill-rule="nonzero" node-id="455" stroke="none" target-height="2.8250122" target-width="13.391968" target-x="552.406" target-y="568.799"/><path d="M 579.81 568.80 L 572.33 568.80 L 572.33 571.62 L 579.81 571.62 L 579.81 568.80 Z" fill="#ffffff" fill-rule="nonzero" node-id="457" stroke="none" target-height="2.8250122" target-width="7.4869995" target-x="572.326" target-y="568.799"/><path d="M 555.68 467.20 L 514.01 467.20 L 514.01 470.02 L 555.68 470.02 L 555.68 467.20 Z" fill="#ffffff" fill-rule="nonzero" node-id="459" stroke="none" target-height="2.8259888" target-width="41.672974" target-x="514.012" target-y="467.199"/><path d="M 526.61 541.96 L 513.22 541.96 L 513.22 544.78 L 526.61 544.78 L 526.61 541.96 Z" fill="#ffffff" fill-rule="nonzero" node-id="461" stroke="none" target-height="2.8250122" target-width="13.391968" target-x="513.221" target-y="541.957"/><path d="M 538.85 541.96 L 531.10 541.96 L 531.10 544.78 L 538.85 544.78 L 538.85 541.96 Z" fill="#ffffff" fill-rule="nonzero" node-id="463" stroke="none" target-height="2.8250122" target-width="7.740967" target-x="531.104" target-y="541.957"/><path d="M 566.62 541.96 L 544.75 541.96 L 544.75 544.78 L 566.62 544.78 L 566.62 541.96 Z" fill="#ffffff" fill-rule="nonzero" node-id="465" stroke="none" target-height="2.8250122" target-width="21.867981" target-x="544.75" target-y="541.957"/><path d="M 570.26 336.05 C 569.56 370.24 534.04 398.91 490.90 400.04 C 477.65 400.49 464.46 398.05 452.25 392.89 C 447.90 403.63 438.75 412.84 412.50 416.97 C 439.88 395.81 424.90 377.89 418.66 362.15 C 415.43 355.29 413.81 347.76 413.94 340.17 C 414.64 305.96 450.16 277.34 493.30 276.18 C 536.45 275.02 570.94 301.86 570.26 336.05 Z" fill="#429cfd" fill-rule="nonzero" node-id="467" stroke="none" target-height="141.945" target-width="158.44403" target-x="412.498" target-y="275.022"/><path d="M 493.02 300.25 L 455.41 300.25 L 455.41 303.08 L 493.02 303.08 L 493.02 300.25 Z" fill="#ffffff" fill-rule="nonzero" node-id="469" stroke="none" target-height="2.8249817" target-width="37.60501" target-x="455.414" target-y="300.252"/><path d="M 477.57 324.75 L 464.17 324.75 L 464.17 327.57 L 477.57 327.57 L 477.57 324.75 Z" fill="#ffffff" fill-rule="nonzero" node-id="471" stroke="none" target-height="2.8250122" target-width="13.391998" target-x="464.174" target-y="324.748"/><path d="M 535.85 352.21 L 522.46 352.21 L 522.46 355.04 L 535.85 355.04 L 535.85 352.21 Z" fill="#ffffff" fill-rule="nonzero" node-id="473" stroke="none" target-height="2.8250122" target-width="13.392029" target-x="522.459" target-y="352.211"/><path d="M 477.57 373.99 L 464.17 373.99 L 464.17 376.82 L 477.57 376.82 L 477.57 373.99 Z" fill="#ffffff" fill-rule="nonzero" node-id="475" stroke="none" target-height="2.8259888" target-width="13.391998" target-x="464.174" target-y="373.992"/><path d="M 496.89 373.99 L 483.50 373.99 L 483.50 376.82 L 496.89 376.82 L 496.89 373.99 Z" fill="#ffffff" fill-rule="nonzero" node-id="477" stroke="none" target-height="2.8259888" target-width="13.392029" target-x="483.498" target-y="373.992"/><path d="M 517.71 352.21 L 483.50 352.21 L 483.50 355.04 L 517.71 355.04 L 517.71 352.21 Z" fill="#ffffff" fill-rule="nonzero" node-id="479" stroke="none" target-height="2.8250122" target-width="34.215027" target-x="483.498" target-y="352.211"/><path d="M 525.94 373.99 L 503.42 373.99 L 503.42 376.82 L 525.94 376.82 L 525.94 373.99 Z" fill="#ffffff" fill-rule="nonzero" node-id="481" stroke="none" target-height="2.8259888" target-width="22.517975" target-x="503.418" target-y="373.992"/><path d="M 525.96 324.75 L 484.29 324.75 L 484.29 327.57 L 525.96 327.57 L 525.96 324.75 Z" fill="#ffffff" fill-rule="nonzero" node-id="483" stroke="none" target-height="2.8250122" target-width="41.67401" target-x="484.289" target-y="324.748"/><path d="M 733.37 983.75 L 712.77 977.59 L 717.57 927.11 L 738.17 933.26 L 733.37 983.75 Z" fill="#7f3e3b" fill-rule="nonzero" node-id="485" stroke="none" target-height="56.64801" target-width="25.400024" target-x="712.771" target-y="927.105"/><path d="M 739.87 921.85 L 719.27 915.72 L 716.59 944.00 L 737.41 947.87 L 739.87 921.85 Z" fill="#000000" fill-opacity="0.2" fill-rule="nonzero" group-id="14" node-id="489" stroke="none" target-height="32.151978" target-width="23.281006" target-x="716.586" target-y="915.719"/><path d="M 855.28 671.92 C 855.28 671.92 713.65 683.87 717.12 745.38 C 719.95 795.73 727.43 782.11 712.77 931.85 L 748.40 933.83 C 748.40 933.83 784.65 811.38 779.76 762.73 C 819.68 762.73 911.08 766.23 924.36 730.21 C 930.95 711.92 934.16 692.58 933.83 673.14 L 855.28 671.92 Z" fill="#429cfd" fill-rule="nonzero" node-id="492" stroke="none" target-height="261.90698" target-width="221.38501" target-x="712.771" target-y="671.922"/><path d="M 754.05 940.61 L 707.49 932.64 L 708.25 912.05 L 756.45 922.75 L 754.05 940.61 Z" fill="#263238" fill-rule="nonzero" node-id="494" stroke="none" target-height="28.564026" target-width="48.963013" target-x="707.488" target-y="912.047"/><path d="M 710.65 969.12 L 734.44 973.84 C 734.88 973.94 735.25 974.20 735.50 974.56 C 735.75 974.93 735.86 975.38 735.80 975.82 L 733.82 998.42 C 733.79 998.95 733.64 999.47 733.40 999.95 C 733.17 1000.42 732.83 1000.85 732.43 1001.20 C 732.02 1001.54 731.55 1001.81 731.05 1001.97 C 730.54 1002.13 730.00 1002.19 729.47 1002.15 C 721.22 1000.34 717.32 999.01 706.87 996.92 C 700.43 995.65 685.71 992.57 676.75 991.55 C 667.79 990.53 668.87 980.08 672.74 979.54 C 690.14 977.26 700.03 974.43 706.78 970.08 C 707.90 969.27 709.29 968.92 710.65 969.12 Z" fill="#263238" fill-rule="nonzero" node-id="496" stroke="none" target-height="33.268982" target-width="68.06598" target-x="667.794" target-y="968.921"/><path d="M 699.97 973.16 C 701.85 973.41 703.74 973.47 705.62 973.33 C 705.72 973.33 705.81 973.30 705.89 973.25 C 705.97 973.19 706.02 973.11 706.05 973.02 C 706.09 972.93 706.11 972.84 706.11 972.75 C 706.11 972.65 706.09 972.56 706.05 972.48 C 705.45 971.89 700.11 966.83 697.37 967.39 C 697.06 967.45 696.76 967.58 696.51 967.79 C 696.27 968.00 696.09 968.27 695.99 968.58 C 695.77 969.02 695.66 969.52 695.70 970.02 C 695.72 970.51 695.88 970.99 696.16 971.41 C 697.16 972.46 698.52 973.09 699.97 973.16 Z M 704.52 972.39 C 700.59 972.39 697.83 971.94 697.01 970.78 C 696.84 970.51 696.75 970.20 696.75 969.88 C 696.75 969.56 696.84 969.25 697.01 968.98 C 697.05 968.82 697.13 968.69 697.25 968.58 C 697.36 968.47 697.50 968.39 697.66 968.35 C 698.98 968.07 702.32 970.33 704.63 972.42 L 704.52 972.39 Z" fill="#429cfd" fill-rule="nonzero" node-id="498" stroke="none" target-height="6.639038" target-width="10.446045" target-x="695.665" target-y="966.829"/><path d="M 705.65 973.36 L 705.88 973.36 C 705.96 973.33 706.03 973.27 706.09 973.21 C 706.15 973.15 706.19 973.07 706.22 972.99 C 706.22 972.73 707.77 966.72 705.96 964.32 C 705.74 963.99 705.45 963.73 705.10 963.55 C 704.76 963.37 704.38 963.27 703.99 963.27 C 703.56 963.21 703.13 963.29 702.76 963.51 C 702.39 963.72 702.11 964.06 701.95 964.46 C 701.08 966.69 703.51 971.63 705.40 973.24 C 705.43 973.28 705.47 973.31 705.51 973.33 C 705.56 973.35 705.61 973.36 705.65 973.36 Z M 704.18 964.29 C 704.58 964.37 704.93 964.59 705.17 964.91 C 705.99 967.14 706.08 969.57 705.43 971.86 C 703.70 969.93 702.79 967.41 702.88 964.82 C 702.88 964.54 703.20 964.23 703.93 964.26 L 704.18 964.29 Z" fill="#429cfd" fill-rule="nonzero" node-id="500" stroke="none" target-height="10.149963" target-width="6.695984" target-x="701.076" target-y="963.208"/><path d="M 641.54 991.61 L 621.94 982.79 L 635.50 934.42 L 655.11 943.24 L 641.54 991.61 Z" fill="#7f3e3b" fill-rule="nonzero" node-id="502" stroke="none" target-height="57.18402" target-width="33.169006" target-x="621.938" target-y="934.422"/><path d="M 658.41 930.78 L 638.80 921.96 L 631.83 946.91 L 651.43 955.73 L 658.41 930.78 Z" fill="#000000" fill-opacity="0.2" fill-rule="nonzero" group-id="15" node-id="506" stroke="none" target-height="33.761963" target-width="26.585999" target-x="631.826" target-y="921.963"/><path d="M 813.13 671.92 C 812.20 671.92 654.35 688.17 654.15 741.71 C 653.81 830.25 628.52 931.74 628.52 931.74 L 659.60 947.19 C 659.60 947.19 713.93 837.17 713.11 768.15 C 756.54 755.69 868.87 776.63 882.15 740.63 C 893.03 711.19 887.15 671.92 887.15 671.92 L 813.13 671.92 Z" fill="#429cfd" fill-rule="nonzero" node-id="509" stroke="none" target-height="275.271" target-width="264.50702" target-x="628.521" target-y="671.922"/><path d="M 664.69 951.69 L 622.87 932.87 L 626.23 915.75 L 670.34 930.98 L 664.69 951.69 Z" fill="#263238" fill-rule="nonzero" node-id="511" stroke="none" target-height="35.93799" target-width="47.466003" target-x="622.871" target-y="915.748"/><path d="M 623.89 966.55 L 647.73 971.49 C 648.18 971.64 648.56 971.95 648.80 972.35 C 649.05 972.75 649.14 973.23 649.06 973.70 L 647.20 998.42 C 646.86 1001.10 644.94 1002.94 642.87 1002.51 C 634.62 1000.62 630.73 999.15 620.27 996.86 C 613.83 995.56 596.28 991.21 587.44 988.98 C 578.60 986.75 580.58 975.42 584.62 975.34 C 602.10 975.08 613.43 972.23 620.16 967.34 C 620.69 966.96 621.30 966.69 621.94 966.55 C 622.58 966.42 623.25 966.41 623.89 966.55 Z" fill="#263238" fill-rule="nonzero" node-id="513" stroke="none" target-height="36.525024" target-width="70.54199" target-x="578.597" target-y="966.415"/><path d="M 614.22 971.89 C 615.88 970.97 617.45 969.89 618.89 968.66 C 618.96 968.60 619.01 968.51 619.04 968.42 C 619.07 968.33 619.08 968.23 619.06 968.13 C 619.03 968.04 618.97 967.95 618.90 967.89 C 618.82 967.83 618.73 967.80 618.63 967.79 C 617.81 967.79 610.52 966.72 608.63 968.84 C 608.42 969.08 608.28 969.36 608.21 969.67 C 608.14 969.99 608.15 970.31 608.24 970.62 C 608.32 971.10 608.53 971.56 608.85 971.95 C 609.16 972.33 609.58 972.62 610.04 972.79 C 611.50 973.02 612.99 972.70 614.22 971.89 Z M 617.42 968.58 C 614.34 970.98 611.77 972.14 610.44 971.75 C 610.14 971.61 609.88 971.40 609.69 971.14 C 609.50 970.88 609.38 970.57 609.34 970.25 C 609.29 970.10 609.28 969.95 609.32 969.80 C 609.35 969.65 609.43 969.51 609.53 969.40 C 610.38 968.38 614.22 968.30 617.28 968.58 L 617.42 968.58 Z" fill="#429cfd" fill-rule="nonzero" node-id="515" stroke="none" target-height="6.305969" target-width="10.938049" target-x="608.139" target-y="966.716"/><path d="M 618.75 968.66 L 618.94 968.52 C 618.99 968.45 619.02 968.37 619.02 968.28 C 619.02 968.20 618.99 968.11 618.94 968.04 C 618.80 967.85 616.46 962.05 613.60 961.18 C 613.24 961.06 612.84 961.03 612.46 961.09 C 612.08 961.15 611.72 961.29 611.40 961.52 C 611.02 961.72 610.72 962.05 610.55 962.44 C 610.38 962.84 610.35 963.28 610.47 963.69 C 611.06 966.04 615.95 968.55 618.46 968.72 L 618.75 968.66 Z M 612.16 962.22 C 612.35 962.14 612.55 962.10 612.76 962.10 C 612.96 962.10 613.16 962.14 613.35 962.22 C 615.34 963.54 616.86 965.45 617.70 967.68 C 615.16 967.15 612.92 965.66 611.46 963.52 C 611.29 963.30 611.46 962.85 611.97 962.45 L 612.16 962.22 Z" fill="#429cfd" fill-rule="nonzero" node-id="517" stroke="none" target-height="7.6900024" target-width="8.666016" target-x="610.352" target-y="961.031"/><path d="M 866.75 501.10 C 870.91 510.03 874.33 518.62 877.74 527.55 C 881.16 536.48 884.18 545.40 886.98 554.56 C 889.78 563.71 892.21 573.09 894.16 582.81 C 896.29 592.91 897.35 603.20 897.32 613.52 C 897.29 619.58 896.39 625.61 894.64 631.41 C 893.53 634.96 891.94 638.34 889.92 641.47 C 888.73 643.22 887.37 644.87 885.88 646.38 L 884.67 647.57 C 883.99 648.13 883.25 648.75 882.55 649.24 C 881.35 650.05 880.08 650.75 878.76 651.33 C 876.79 652.17 874.75 652.82 872.66 653.27 C 871.01 653.62 869.34 653.86 867.66 654.01 C 864.79 654.18 861.91 654.18 859.04 654.01 C 853.94 653.76 848.87 653.19 843.84 652.32 C 825.09 648.90 806.72 643.64 789.00 636.61 L 793.10 621.04 C 811.04 623.19 829.35 625.47 846.61 626.26 C 850.90 626.26 855.08 626.46 858.98 626.26 C 860.72 626.16 862.45 625.94 864.15 625.62 C 865.57 625.36 866.78 624.85 866.36 624.88 C 866.07 624.97 865.80 625.10 865.57 625.28 C 865.28 625.44 865.01 625.64 864.77 625.87 C 864.87 625.72 864.96 625.55 865.03 625.39 C 865.39 624.58 865.68 623.74 865.88 622.88 C 866.50 619.77 866.75 616.60 866.64 613.44 C 866.21 605.35 865.01 597.31 863.05 589.45 C 861.13 580.98 858.64 572.73 855.93 564.33 C 853.22 555.94 850.28 547.55 847.06 539.19 C 843.84 530.83 840.45 522.43 837.12 514.55 L 866.75 501.10 Z" fill="#7f3e3b" fill-rule="nonzero" node-id="519" stroke="none" target-height="153.07599" target-width="108.34601" target-x="789" target-y="501.104"/><path d="M 800.89 625.28 L 782.16 614.74 L 772.75 635.02 C 772.75 635.02 794.65 644.15 799.25 638.44 L 800.89 625.28 Z" fill="#7f3e3b" fill-rule="nonzero" node-id="521" stroke="none" target-height="29.412048" target-width="28.139954" target-x="772.754" target-y="614.738"/><path d="M 766.99 618.58 L 758.43 632.14 L 772.75 634.88 L 782.16 614.60 L 766.99 618.58 Z" fill="#7f3e3b" fill-rule="nonzero" node-id="523" stroke="none" target-height="20.28601" target-width="23.731995" target-x="758.43" target-y="614.596"/><path d="M 823.07 517.21 C 819.49 526.22 815.73 534.84 811.77 543.57 C 807.82 552.30 803.86 560.89 799.68 569.48 C 791.26 586.96 781.83 603.94 771.43 620.33 C 768.60 624.51 765.78 628.67 762.61 632.82 C 761.03 634.91 759.28 636.97 757.41 639.09 C 756.40 640.16 755.58 641.15 754.39 642.26 L 752.70 643.89 L 751.73 644.80 C 749.04 647.10 745.88 648.78 742.47 649.72 C 740.67 650.23 738.84 650.61 736.99 650.87 C 733.97 651.24 730.93 651.36 727.89 651.24 C 722.64 651.08 717.41 650.56 712.24 649.69 C 693.08 646.30 674.32 640.98 656.24 633.81 L 660.36 618.21 C 678.64 620.42 697.32 622.76 714.89 623.50 C 719.04 623.65 723.18 623.59 727.32 623.33 C 728.99 623.19 730.64 622.92 732.27 622.53 C 732.79 622.40 733.31 622.21 733.79 621.97 C 733.96 621.97 733.79 621.77 733.03 622.25 C 732.75 622.40 732.49 622.59 732.27 622.82 L 732.55 622.48 L 733.34 621.60 C 733.85 621.09 734.47 620.25 735.07 619.57 C 736.22 618.10 737.41 616.52 738.60 614.79 C 740.94 611.43 743.23 607.70 745.49 603.92 C 750.01 596.34 754.22 588.29 758.35 580.15 C 762.47 572.02 766.43 563.71 770.33 555.35 C 778.10 538.68 785.70 521.45 792.93 504.77 L 823.07 517.21 Z" fill="#7f3e3b" fill-rule="nonzero" node-id="525" stroke="none" target-height="146.58298" target-width="166.836" target-x="656.238" target-y="504.775"/><path d="M 668.39 622.28 L 649.63 611.52 L 640.22 631.80 C 640.22 631.80 662.12 640.96 666.75 635.25 L 668.39 622.28 Z" fill="#7f3e3b" fill-rule="nonzero" node-id="527" stroke="none" target-height="29.439026" target-width="28.16803" target-x="640.219" target-y="611.516"/><path d="M 634.48 615.61 L 625.89 629.15 L 640.22 631.89 L 649.62 611.60 L 634.48 615.61 Z" fill="#7f3e3b" fill-rule="nonzero" node-id="529" stroke="none" target-height="20.285034" target-width="23.731995" target-x="625.893" target-y="611.602"/><path d="M 871.58 416.96 L 859.61 430.84 L 841.33 449.74 L 842.71 453.16 C 844.12 456.65 844.94 460.36 845.14 464.12 C 845.56 471.69 844.83 478.11 832.88 483.25 C 832.88 483.25 820.33 499.63 850.17 495.08 C 880.00 490.54 884.50 475.05 884.50 475.05 C 871.33 465.64 870.54 434.37 871.58 416.96 Z" fill="#7f3e3b" fill-rule="nonzero" node-id="531" stroke="none" target-height="82.66901" target-width="64.162964" target-x="820.333" target-y="416.965"/><path d="M 810.75 401.31 C 810.75 403.18 809.82 404.76 808.58 404.82 C 807.34 404.87 806.35 403.40 806.32 401.54 C 806.29 399.67 807.28 398.09 808.50 398.04 C 809.71 397.98 810.73 399.45 810.75 401.31 Z" fill="#263238" fill-rule="nonzero" node-id="533" stroke="none" target-height="6.8940125" target-width="4.4639893" target-x="806.291" target-y="397.978"/><path d="M 817.00 394.36 C 816.82 394.36 816.64 394.31 816.48 394.22 C 816.32 394.13 816.19 394.01 816.10 393.85 C 815.36 392.65 814.37 391.64 813.18 390.88 C 812.00 390.13 810.65 389.66 809.26 389.50 C 808.97 389.49 808.69 389.36 808.49 389.15 C 808.29 388.94 808.18 388.66 808.18 388.37 C 808.18 388.23 808.21 388.08 808.27 387.95 C 808.33 387.81 808.41 387.69 808.52 387.59 C 808.62 387.49 808.75 387.41 808.89 387.36 C 809.02 387.31 809.17 387.29 809.31 387.30 C 811.07 387.45 812.77 388.02 814.27 388.95 C 815.78 389.89 817.04 391.16 817.96 392.67 C 818.11 392.92 818.16 393.21 818.10 393.50 C 818.03 393.78 817.86 394.03 817.62 394.19 C 817.43 394.30 817.22 394.36 817.00 394.36 Z" fill="#263238" fill-rule="nonzero" node-id="535" stroke="none" target-height="7.0710144" target-width="9.976013" target-x="808.183" target-y="387.291"/><path d="M 810.08 402.44 C 808.55 407.53 806.37 412.39 803.58 416.91 C 804.74 417.56 806.03 417.95 807.36 418.05 C 808.69 418.15 810.02 417.95 811.26 417.47 L 810.08 402.44 Z" fill="#630f0f" fill-rule="nonzero" node-id="537" stroke="none" target-height="15.705994" target-width="7.6849976" target-x="803.578" target-y="402.441"/><path d="M 873.28 391.90 C 872.18 414.96 872.69 428.63 861.24 440.84 C 857.57 444.89 852.85 447.86 847.60 449.43 C 842.36 451.00 836.78 451.10 831.49 449.73 C 826.18 448.36 821.36 445.57 817.53 441.66 C 813.70 437.74 811.02 432.86 809.77 427.53 C 804.57 407.10 807.28 372.83 829.54 362.55 C 834.33 360.18 839.67 359.11 845.00 359.46 C 850.34 359.81 855.48 361.56 859.92 364.54 C 864.36 367.52 867.93 371.62 870.28 376.43 C 872.63 381.23 873.66 386.57 873.28 391.90 Z" fill="#7f3e3b" fill-rule="nonzero" node-id="539" stroke="none" target-height="91.99399" target-width="69.09296" target-x="804.567" target-y="359.109"/><path d="M 883.73 399.62 C 880.41 409.40 875.33 418.49 868.76 426.46 L 838.75 432.11 C 838.75 432.11 815.05 422.19 821.38 405.86 C 817.37 402.47 818.86 391.99 821.69 386.23 C 823.96 388.09 826.84 389.08 829.78 389.00 C 832.72 388.92 835.54 387.79 837.71 385.80 C 838.62 387.22 839.84 388.42 841.29 389.29 C 842.73 390.16 844.36 390.68 846.04 390.82 C 847.72 390.96 849.41 390.71 850.98 390.09 C 852.55 389.47 853.95 388.50 855.08 387.24 C 856.37 388.49 857.93 389.42 859.63 389.96 C 861.34 390.50 863.14 390.64 864.91 390.37 C 866.68 390.09 868.36 389.41 869.82 388.38 C 871.28 387.35 872.49 385.99 873.34 384.42 C 875.18 385.57 877.34 386.11 879.51 385.97 C 881.68 385.83 883.75 385.01 885.43 383.63 L 885.85 383.23 C 886.26 388.78 885.54 394.35 883.73 399.62 Z" fill="#263238" fill-rule="nonzero" node-id="541" stroke="none" target-height="48.878998" target-width="71.208984" target-x="815.049" target-y="383.23"/><path d="M 883.73 399.62 C 880.41 409.40 875.33 418.49 868.76 426.46 L 838.75 432.11 C 838.75 432.11 815.05 422.19 821.38 405.86 C 817.37 402.47 818.86 391.99 821.69 386.23 C 823.96 388.09 826.84 389.08 829.78 389.00 C 832.72 388.92 835.54 387.79 837.71 385.80 C 838.62 387.22 839.84 388.42 841.29 389.29 C 842.73 390.16 844.36 390.68 846.04 390.82 C 847.72 390.96 849.41 390.71 850.98 390.09 C 852.55 389.47 853.95 388.50 855.08 387.24 C 856.37 388.49 857.93 389.42 859.63 389.96 C 861.34 390.50 863.14 390.64 864.91 390.37 C 866.68 390.09 868.36 389.41 869.82 388.38 C 871.28 387.35 872.49 385.99 873.34 384.42 C 875.18 385.57 877.34 386.11 879.51 385.97 C 881.68 385.83 883.75 385.01 885.43 383.63 L 885.85 383.23 C 886.26 388.78 885.54 394.35 883.73 399.62 Z" fill="#ffffff" fill-opacity="0.1" fill-rule="nonzero" group-id="16" node-id="545" stroke="none" target-height="48.878998" target-width="71.208984" target-x="815.049" target-y="383.23"/><path d="M 888.06 371.65 C 888.87 373.56 889.09 375.67 888.70 377.70 C 888.31 379.74 887.32 381.62 885.85 383.09 L 885.43 383.49 C 883.75 384.87 881.68 385.69 879.51 385.83 C 877.34 385.97 875.18 385.43 873.34 384.28 C 872.49 385.85 871.28 387.21 869.82 388.24 C 868.36 389.27 866.68 389.95 864.91 390.23 C 863.14 390.50 861.34 390.36 859.63 389.82 C 857.93 389.27 856.37 388.35 855.08 387.10 C 853.95 388.35 852.55 389.33 850.98 389.95 C 849.41 390.57 847.72 390.82 846.04 390.68 C 844.36 390.54 842.73 390.02 841.29 389.15 C 839.84 388.27 838.62 387.08 837.71 385.66 C 835.54 387.65 832.72 388.78 829.78 388.86 C 826.84 388.94 823.96 387.95 821.69 386.08 C 820.49 385.15 819.52 383.95 818.86 382.58 C 818.71 382.28 818.58 381.97 818.47 381.65 C 818.23 381.92 817.96 382.18 817.68 382.41 C 816.27 383.54 814.54 384.20 812.74 384.31 C 810.94 384.41 809.15 383.96 807.62 383.00 C 806.41 382.16 805.43 381.02 804.80 379.69 C 804.17 378.35 803.89 376.88 804.00 375.40 C 804.03 374.79 804.14 374.18 804.31 373.60 C 804.09 374.02 803.80 374.41 803.47 374.75 C 802.79 375.40 802.00 375.91 801.12 376.25 C 800.25 376.59 799.32 376.75 798.38 376.73 C 797.45 376.71 796.52 376.50 795.67 376.12 C 794.82 375.73 794.05 375.18 793.41 374.50 C 792.76 373.51 792.31 372.41 792.10 371.24 C 791.89 370.08 791.92 368.89 792.18 367.74 C 792.45 366.58 792.94 365.50 793.64 364.54 C 794.33 363.59 795.22 362.79 796.23 362.18 C 797.84 361.24 799.68 360.75 801.54 360.77 C 804.48 360.81 807.33 361.80 809.65 363.59 C 808.75 361.81 808.51 359.77 808.97 357.83 C 809.43 355.89 810.56 354.17 812.16 352.98 C 813.76 351.79 815.73 351.20 817.72 351.32 C 819.71 351.44 821.60 352.25 823.04 353.62 C 822.73 352.18 822.86 350.68 823.40 349.31 C 823.95 347.94 824.90 346.76 826.12 345.94 C 830.02 343.68 836.52 345.62 839.69 349.41 C 839.69 349.41 844.04 338.90 851.55 340.09 C 853.19 340.31 860.90 343.73 860.71 346.50 C 860.75 346.68 860.75 346.86 860.71 347.04 C 860.81 346.82 860.93 346.61 861.07 346.42 C 861.90 345.30 863.00 344.40 864.26 343.80 C 865.52 343.20 866.91 342.93 868.31 343.00 C 871.33 343.22 874.28 344.01 877.01 345.31 C 882.86 347.72 889.07 350.40 892.46 355.74 C 895.85 361.08 894.13 369.95 888.06 371.65 Z" fill="#263238" fill-rule="nonzero" node-id="548" stroke="none" target-height="51.920013" target-width="103.96399" target-x="791.89" target-y="338.901"/><path d="M 834.60 408.09 C 833.77 413.78 831.16 419.06 827.14 423.18 C 822.03 428.07 817.68 423.18 817.62 415.75 C 817.62 409.02 820.13 398.37 826.10 396.39 C 832.06 394.42 835.73 400.66 834.60 408.09 Z" fill="#7f3e3b" fill-rule="nonzero" node-id="550" stroke="none" target-height="33.648987" target-width="18.109985" target-x="817.619" target-y="394.418"/><path d="M 925.01 483.08 C 922.89 477.43 913.00 471.77 906.93 471.77 L 902.92 471.77 C 894.82 471.85 886.74 472.37 878.70 473.33 C 862.55 475.12 846.52 477.81 830.67 481.41 C 823.38 483.33 816.35 485.76 810.75 487.85 C 803.63 490.68 799.45 492.57 799.45 492.57 C 799.45 492.57 807.25 544.50 811.29 596.09 C 813.52 624.82 812.59 653.33 813.33 672.94 L 933.85 672.94 C 938.01 649.38 937.36 628.84 937.70 586.29 C 937.87 560.66 933.71 506.33 925.01 483.08 Z" fill="#263238" fill-rule="nonzero" node-id="552" stroke="none" target-height="201.163" target-width="138.55402" target-x="799.453" target-y="471.775"/><path d="M 808.66 567.27 C 809.57 578.09 810.50 589.45 811.49 600.81 C 825.62 580.18 833.41 523.76 833.41 523.76 L 808.66 567.27 Z" fill="#000000" fill-opacity="0.2" fill-rule="nonzero" group-id="17" node-id="556" stroke="none" target-height="77.04596" target-width="24.75" target-x="808.664" target-y="523.762"/><path d="M 792.62 496.36 C 775.35 506.08 758.43 555.69 758.43 555.69 L 797.98 585.50 C 813.07 571.23 835.14 535.83 837.54 521.67 C 841.38 500.09 820.28 480.87 792.62 496.36 Z" fill="#263238" fill-rule="nonzero" node-id="559" stroke="none" target-height="104.62198" target-width="82.95099" target-x="758.43" target-y="480.874"/><path d="M 758.49 1002.65 C 758.49 1005.08 757.77 1007.46 756.41 1009.48 C 755.07 1011.50 753.14 1013.08 750.90 1014.01 C 748.65 1014.94 746.18 1015.18 743.80 1014.71 C 741.41 1014.23 739.23 1013.06 737.51 1011.34 C 735.79 1009.63 734.62 1007.44 734.14 1005.05 C 733.67 1002.67 733.91 1000.20 734.84 997.95 C 735.77 995.70 737.35 993.78 739.37 992.43 C 741.39 991.08 743.77 990.36 746.20 990.36 C 749.46 990.36 752.58 991.66 754.89 993.96 C 757.19 996.27 758.49 999.39 758.49 1002.65 Z" fill="#263238" fill-rule="nonzero" node-id="561" stroke="none" target-height="24.817017" target-width="24.81897" target-x="733.668" target-y="990.363"/><path d="M 941.96 1002.65 C 941.96 1005.08 942.68 1007.46 944.03 1009.48 C 945.38 1011.50 947.30 1013.08 949.55 1014.01 C 951.80 1014.94 954.27 1015.18 956.65 1014.71 C 959.03 1014.23 961.23 1013.06 962.94 1011.34 C 964.66 1009.63 965.83 1007.44 966.31 1005.05 C 966.78 1002.67 966.54 1000.20 965.61 997.95 C 964.68 995.70 963.10 993.78 961.08 992.43 C 959.06 991.08 956.68 990.36 954.25 990.36 C 950.99 990.36 947.87 991.66 945.56 993.96 C 943.26 996.27 941.96 999.39 941.96 1002.65 Z" fill="#263238" fill-rule="nonzero" node-id="563" stroke="none" target-height="24.817017" target-width="24.817993" target-x="941.963" target-y="990.363"/><path d="M 838.19 998.59 C 838.19 1001.02 838.91 1003.39 840.26 1005.41 C 841.61 1007.43 843.53 1009.01 845.77 1009.94 C 848.02 1010.87 850.49 1011.11 852.88 1010.64 C 855.26 1010.16 857.45 1008.99 859.17 1007.28 C 860.89 1005.56 862.06 1003.37 862.53 1000.98 C 863.01 998.60 862.76 996.13 861.83 993.88 C 860.90 991.64 859.33 989.72 857.31 988.37 C 855.28 987.02 852.91 986.29 850.48 986.29 C 847.22 986.29 844.09 987.59 841.79 989.89 C 839.48 992.20 838.19 995.33 838.19 998.59 Z" fill="#263238" fill-rule="nonzero" node-id="565" stroke="none" target-height="24.815002" target-width="24.81897" target-x="838.187" target-y="986.295"/><path d="M 846.66 983.56 L 846.66 959.79 L 811.46 959.79 C 804.55 959.79 797.65 960.43 790.87 961.72 L 725.32 974.43 C 723.85 974.72 722.54 975.55 721.65 976.75 C 720.76 977.96 720.37 979.46 720.53 980.95 C 720.70 982.44 721.42 983.81 722.55 984.79 C 723.69 985.77 725.15 986.29 726.64 986.24 L 846.66 983.56 Z" fill="#263238" fill-rule="nonzero" node-id="567" stroke="none" target-height="26.500977" target-width="126.29895" target-x="720.366" target-y="959.786"/><path d="M 846.66 983.56 L 846.66 959.79 L 881.90 959.79 C 888.78 959.84 895.65 960.53 902.41 961.86 L 976.09 973.61 C 977.56 973.90 978.87 974.73 979.76 975.93 C 980.64 977.14 981.04 978.64 980.88 980.13 C 980.71 981.62 979.99 982.99 978.85 983.97 C 977.72 984.95 976.26 985.47 974.76 985.42 L 846.66 983.56 Z" fill="#263238" fill-rule="nonzero" node-id="569" stroke="none" target-height="25.673035" target-width="134.38" target-x="846.664" target-y="959.795"/><path d="M 868.45 851.02 L 824.85 851.02 L 824.85 959.82 L 868.45 959.82 L 868.45 851.02 Z" fill="#263238" fill-rule="nonzero" node-id="571" stroke="none" target-height="108.80298" target-width="43.593994" target-x="824.854" target-y="851.02"/><path d="M 862.20 800.39 L 831.12 800.39 L 831.12 850.99 L 862.20 850.99 L 862.20 800.39 Z" fill="#263238" fill-rule="nonzero" node-id="573" stroke="none" target-height="50.601013" target-width="31.07898" target-x="831.125" target-y="800.389"/><path d="M 831.12 815.25 L 862.20 823.08 L 862.20 800.39 L 831.12 800.39 L 831.12 815.25 Z" fill="#000000" fill-opacity="0.5" fill-rule="nonzero" group-id="18" node-id="577" stroke="none" target-height="22.687012" target-width="31.07898" target-x="831.125" target-y="800.389"/><path d="M 746.20 685.91 L 730.40 685.91 L 730.40 753.29 L 746.20 753.29 L 746.20 685.91 Z" fill="#263238" fill-rule="nonzero" node-id="580" stroke="none" target-height="67.38397" target-width="15.794006" target-x="730.402" target-y="685.908"/><path d="M 825.39 800.39 L 825.39 507.43 C 825.38 501.95 826.56 496.53 828.82 491.54 C 831.09 486.55 834.40 482.11 838.53 478.50 L 859.41 460.22 C 866.44 454.05 875.48 450.67 884.83 450.70 L 960.24 450.70 L 997.03 490.03 L 997.03 800.39 L 825.39 800.39 Z" fill="#429cfd" fill-rule="nonzero" node-id="582" stroke="none" target-height="349.72202" target-width="171.64197" target-x="825.385" target-y="450.668"/><path d="M 713.11 743.71 L 885.17 743.71 L 885.17 800.39 L 685.06 800.39 C 681.47 800.38 677.94 799.43 674.84 797.62 C 671.74 795.82 669.17 793.23 667.39 790.11 C 665.62 786.99 664.69 783.46 664.72 779.88 C 664.75 776.29 665.72 772.77 667.54 769.68 C 672.22 761.76 678.88 755.20 686.88 750.64 C 694.87 746.09 703.91 743.70 713.11 743.71 Z" fill="#429cfd" fill-rule="nonzero" node-id="584" stroke="none" target-height="56.690002" target-width="220.479" target-x="664.694" target-y="743.699"/><path d="M 997.03 490.03 L 997.03 800.39 L 685.06 800.39 C 681.47 800.38 677.94 799.43 674.84 797.62 C 671.74 795.82 669.17 793.23 667.39 790.11 C 665.62 787.00 664.69 783.46 664.72 779.88 C 664.75 776.29 665.72 772.77 667.54 769.68 C 672.22 761.76 678.88 755.20 686.88 750.64 C 694.87 746.09 703.91 743.70 713.11 743.71 L 799.76 743.71 C 806.59 743.71 813.14 741.00 817.96 736.17 C 822.79 731.35 825.50 724.80 825.50 717.98 L 825.50 507.43 C 825.50 501.95 826.67 496.53 828.94 491.54 C 831.20 486.55 834.51 482.11 838.64 478.50 L 859.52 460.22 C 866.55 454.05 875.59 450.67 884.95 450.70 L 960.36 450.70 L 997.03 490.03 Z" fill="#ffffff" fill-opacity="0.7" fill-rule="nonzero" group-id="19" node-id="588" stroke="none" target-height="349.72202" target-width="332.33405" target-x="664.694" target-y="450.668"/><path d="M 850.48 800.39 L 850.48 507.43 C 850.48 501.95 851.66 496.54 853.92 491.55 C 856.19 486.56 859.49 482.11 863.62 478.50 L 884.50 460.22 C 891.53 454.05 900.57 450.67 909.92 450.70 L 968.72 450.70 C 973.97 450.69 979.17 451.77 983.99 453.85 C 988.81 455.94 993.15 458.99 996.75 462.82 L 1011.78 478.78 C 1018.47 485.93 1022.20 495.35 1022.20 505.14 L 1022.20 771.03 C 1022.21 774.89 1021.45 778.71 1019.97 782.28 C 1018.50 785.84 1016.33 789.08 1013.60 791.81 C 1010.87 794.54 1007.63 796.70 1004.07 798.17 C 1000.50 799.64 996.68 800.40 992.82 800.39 L 850.48 800.39 Z" fill="#429cfd" fill-rule="nonzero" node-id="591" stroke="none" target-height="349.72897" target-width="171.73102" target-x="850.479" target-y="450.668"/><path d="M 850.48 800.39 L 850.48 507.43 C 850.48 501.95 851.66 496.54 853.92 491.55 C 856.19 486.56 859.49 482.11 863.62 478.50 L 884.50 460.22 C 891.53 454.05 900.57 450.67 909.92 450.70 L 968.72 450.70 C 973.97 450.69 979.17 451.77 983.99 453.85 C 988.81 455.94 993.15 458.99 996.75 462.82 L 1011.78 478.78 C 1018.47 485.93 1022.20 495.35 1022.20 505.14 L 1022.20 771.03 C 1022.21 774.89 1021.45 778.71 1019.97 782.28 C 1018.50 785.84 1016.33 789.08 1013.60 791.81 C 1010.87 794.54 1007.63 796.70 1004.07 798.17 C 1000.50 799.64 996.68 800.40 992.82 800.39 L 850.48 800.39 Z" fill="#ffffff" fill-opacity="0.5" fill-rule="nonzero" group-id="20" node-id="595" stroke="none" target-height="349.72897" target-width="171.73102" target-x="850.479" target-y="450.668"/><path d="M 791.94 706.48 C 757.18 694.33 719.33 694.33 684.58 706.48 C 681.09 707.78 677.24 707.76 673.76 706.44 C 670.29 705.11 667.41 702.57 665.67 699.27 C 662.45 692.46 666.77 683.65 675.53 680.57 C 716.13 666.38 760.33 666.38 800.92 680.57 C 809.68 683.62 814.00 692.46 810.78 699.27 C 809.05 702.55 806.18 705.09 802.71 706.42 C 799.25 707.74 795.42 707.76 791.94 706.48 Z" fill="#429cfd" fill-rule="nonzero" node-id="598" stroke="none" target-height="41.394043" target-width="151.55096" target-x="662.452" target-y="666.384"/><path d="M 791.94 706.48 C 757.18 694.33 719.33 694.33 684.58 706.48 C 681.09 707.78 677.24 707.76 673.76 706.44 C 670.29 705.11 667.41 702.57 665.67 699.27 C 662.45 692.46 666.77 683.65 675.53 680.57 C 716.13 666.38 760.33 666.38 800.92 680.57 C 809.68 683.62 814.00 692.46 810.78 699.27 C 809.05 702.55 806.18 705.09 802.71 706.42 C 799.25 707.74 795.42 707.76 791.94 706.48 Z" fill="#ffffff" fill-opacity="0.7" fill-rule="nonzero" group-id="21" node-id="602" stroke="none" target-height="41.394043" target-width="151.55096" target-x="662.452" target-y="666.384"/><path d="M 352.86 426.14 C 352.26 427.81 352.69 429.48 353.79 429.84 C 354.89 430.21 356.25 429.19 356.81 427.53 C 357.38 425.86 356.98 424.17 355.91 423.80 C 354.83 423.43 353.45 424.45 352.86 426.14 Z" fill="#263238" fill-rule="nonzero" node-id="605" stroke="none" target-height="6.781006" target-width="5.1140137" target-x="352.263" target-y="423.43"/><path d="M 352.55 427.87 C 352.77 433.69 353.79 439.44 355.57 444.99 C 354.14 445.39 352.65 445.48 351.19 445.26 C 349.73 445.04 348.33 444.50 347.09 443.69 L 352.55 427.87 Z" fill="#a02724" fill-rule="nonzero" node-id="607" stroke="none" target-height="17.615997" target-width="8.475983" target-x="347.092" target-y="427.867"/><path d="M 350.14 414.79 C 350.25 414.83 350.36 414.85 350.47 414.85 C 350.58 414.85 350.69 414.83 350.79 414.79 C 352.04 414.39 353.35 414.29 354.64 414.48 C 355.93 414.68 357.15 415.17 358.22 415.92 C 358.33 416.00 358.46 416.06 358.60 416.09 C 358.73 416.12 358.87 416.13 359.00 416.11 C 359.14 416.09 359.27 416.04 359.39 415.97 C 359.51 415.90 359.61 415.80 359.69 415.69 C 359.85 415.50 359.93 415.26 359.93 415.01 C 359.93 414.76 359.85 414.52 359.69 414.33 C 358.37 413.35 356.82 412.69 355.19 412.42 C 353.56 412.15 351.89 412.27 350.31 412.78 C 350.06 412.88 349.84 413.07 349.72 413.31 C 349.60 413.56 349.58 413.85 349.66 414.11 C 349.71 414.26 349.79 414.40 349.91 414.51 C 350.02 414.62 350.16 414.71 350.31 414.76 L 350.14 414.79 Z" fill="#263238" fill-rule="nonzero" node-id="609" stroke="none" target-height="3.979004" target-width="10.354004" target-x="349.58" target-y="412.151"/><path d="M 290.90 432.30 C 294.06 448.38 297.20 477.85 285.95 488.58 C 285.95 488.58 290.36 504.88 320.25 504.88 C 353.11 504.88 335.96 488.58 335.96 488.58 C 318.02 484.29 320.90 470.98 324.04 458.49 L 290.90 432.30 Z" fill="#b55b52" fill-rule="nonzero" node-id="611" stroke="none" target-height="72.582" target-width="67.15799" target-x="285.953" target-y="432.303"/><path d="M 298.21 403.14 C 292.34 424.16 287.82 436.17 294.54 450.33 C 304.63 471.66 339.89 474.43 349.49 450.02 C 356.81 427.41 364.05 403.77 346.67 388.59 C 342.87 385.23 338.27 382.89 333.32 381.80 C 328.36 380.71 323.21 380.90 318.35 382.36 C 313.49 383.81 309.08 386.49 305.54 390.13 C 302.00 393.76 299.45 398.24 298.13 403.14 L 298.21 403.14 Z" fill="#b55b52" fill-rule="nonzero" node-id="613" stroke="none" target-height="93.718994" target-width="76.22702" target-x="287.818" target-y="380.708"/><path d="M 275.44 410.15 C 273.92 402.41 273.52 393.93 277.39 387.04 C 281.26 380.15 290.61 375.94 297.42 379.95 C 299.63 375.29 302.91 371.21 306.98 368.04 C 311.05 364.87 315.81 362.70 320.87 361.70 C 325.93 360.70 331.15 360.89 336.12 362.27 C 341.10 363.65 345.67 366.18 349.50 369.64 C 353.32 373.11 356.27 377.42 358.13 382.24 C 359.98 387.05 360.69 392.23 360.18 397.37 C 359.68 402.50 357.98 407.44 355.22 411.80 C 352.46 416.16 348.72 419.81 344.30 422.47 C 345.85 416.68 347.43 410.92 348.99 405.12 C 347.60 413.19 343.32 420.47 336.95 425.61 L 339.77 408.29 C 339.33 412.38 337.94 416.30 335.71 419.76 C 333.49 423.22 330.49 426.11 326.95 428.21 L 330.25 416.08 C 328.58 421.66 326.44 427.08 323.87 432.30 C 321.04 435.55 319.23 456.80 309.51 457.48 C 276.12 464.12 279.00 428.23 275.44 410.15 Z" fill="#263238" fill-rule="nonzero" node-id="615" stroke="none" target-height="103.418" target-width="87.16702" target-x="273.52" target-y="360.698"/><path d="M 320.39 420.21 C 319.83 425.60 321.04 431.03 323.84 435.67 C 327.60 441.71 333.11 439.39 335.14 433.21 C 336.95 427.56 337.15 417.81 331.92 413.88 C 326.69 409.95 321.18 413.74 320.39 420.21 Z" fill="#b55b52" fill-rule="nonzero" node-id="617" stroke="none" target-height="31.757019" target-width="17.317993" target-x="319.829" target-y="409.955"/><path d="M 240.75 623.86 C 237.16 622.67 220.35 614.03 217.66 615.58 C 225.43 595.80 230.26 592.73 233.80 580.12 C 234.78 577.00 234.95 573.67 234.29 570.46 C 233.64 567.24 232.17 564.25 230.04 561.76 C 225.07 555.09 223.34 551.73 215.09 552.55 C 203.79 571.53 189.41 594.93 183.82 616.37 C 181.92 623.58 180.57 629.06 184.86 635.16 C 188.65 640.53 195.63 642.68 202.18 643.27 C 217.92 644.68 241.28 641.80 240.97 632.45 C 240.80 626.54 240.75 623.86 240.75 623.86 Z" fill="#b55b52" fill-rule="nonzero" node-id="619" stroke="none" target-height="92.953" target-width="60.716003" target-x="180.568" target-y="551.73"/><path d="M 238.09 623.15 L 251.43 618.83 L 250.24 642.93 C 250.24 642.93 239.56 643.30 233.85 636.15 L 238.09 623.15 Z" fill="#b55b52" fill-rule="nonzero" node-id="621" stroke="none" target-height="24.46698" target-width="17.572998" target-x="233.854" target-y="618.83"/><path d="M 268.10 618.44 L 266.20 638.33 L 250.24 642.93 L 251.43 618.83 L 268.10 618.44 Z" fill="#b55b52" fill-rule="nonzero" node-id="623" stroke="none" target-height="24.495056" target-width="17.856003" target-x="250.24" target-y="618.436"/><path d="M 421.00 640.27 C 421.00 640.27 402.33 625.64 377.97 577.61 C 374.36 570.88 370.91 564.08 367.57 557.24 C 364.24 550.40 361.08 543.56 358.02 536.30 L 386.90 523.87 C 392.83 536.81 402.10 550.17 408.65 563.03 C 415.21 575.88 430.66 606.34 432.61 609.17 C 433.57 610.64 434.62 611.85 435.61 613.21 L 437.11 615.19 L 418.49 636.72 L 421.00 640.27 Z" fill="#b55b52" fill-rule="nonzero" node-id="625" stroke="none" target-height="116.403015" target-width="79.08099" target-x="358.025" target-y="523.871"/><path d="M 445.44 546.53 L 439.79 539.64 L 437.13 529.32 L 454.57 513.13 C 457.23 516.52 459.61 520.13 461.66 523.93 C 462.11 524.80 462.32 525.77 462.28 526.75 L 461.57 544.92 L 445.44 546.53 Z" fill="#b55b52" fill-rule="nonzero" node-id="627" stroke="none" target-height="33.39502" target-width="25.186981" target-x="437.135" target-y="513.135"/><path d="M 437.25 518.19 L 450.27 506.35 L 454.40 513.28 L 436.99 529.38 L 437.25 518.19 Z" fill="#b55b52" fill-rule="nonzero" node-id="629" stroke="none" target-height="23.026001" target-width="17.404022" target-x="436.994" target-y="506.354"/><path d="M 445.70 541.56 C 446.15 539.61 446.54 543.42 447.84 541.90 C 451.69 537.26 457.28 536.78 460.61 541.90 C 463.95 547.01 461.09 597.33 455.78 613.12 C 452.25 623.61 450.36 631.97 441.32 638.35 C 437.66 641.17 433.21 642.77 428.60 642.93 C 426.31 642.96 424.05 642.33 422.10 641.12 C 420.14 639.91 418.58 638.16 417.58 636.09 C 414.76 629.51 424.87 605.78 428.43 598.12 C 439.59 574.02 440.36 564.33 445.70 541.56 Z" fill="#b55b52" fill-rule="nonzero" node-id="631" stroke="none" target-height="106.17499" target-width="49.188995" target-x="414.758" target-y="536.784"/><path d="M 408.32 539.38 L 431.40 539.16 C 434.69 539.37 437.99 538.85 441.06 537.63 C 444.82 535.43 447.63 531.92 448.94 527.77 C 452.22 519.29 452.50 510.20 453.78 501.32 C 455.05 492.45 457.76 483.13 464.48 477.17 C 452.22 478.81 430.58 474.96 421.12 484.99 C 416.14 490.33 407.36 539.38 408.32 539.38 Z" fill="#429cfd" fill-rule="nonzero" node-id="633" stroke="none" target-height="64.41803" target-width="57.12802" target-x="407.356" target-y="474.964"/><path d="M 408.32 539.38 L 431.40 539.16 C 434.69 539.37 437.99 538.85 441.06 537.63 C 444.82 535.43 447.63 531.92 448.94 527.77 C 452.22 519.29 452.50 510.20 453.78 501.32 C 455.05 492.45 457.76 483.13 464.48 477.17 C 452.22 478.81 430.58 474.96 421.12 484.99 C 416.14 490.33 407.36 539.38 408.32 539.38 Z" fill="#ffffff" fill-opacity="0.5" fill-rule="nonzero" group-id="22" node-id="637" stroke="none" target-height="64.41803" target-width="57.12802" target-x="407.356" target-y="474.964"/><path d="M 447.81 505.08 C 446.49 505.45 445.61 510.17 445.89 511.52 L 447.19 513.84 L 449.82 525.14 L 458.63 520.28 L 450.70 506.16 C 450.39 505.69 449.95 505.34 449.43 505.15 C 448.91 504.95 448.35 504.93 447.81 505.08 Z" fill="#b55b52" fill-rule="nonzero" node-id="640" stroke="none" target-height="20.210999" target-width="13.025024" target-x="445.61" target-y="504.932"/><path d="M 248.72 492.62 C 228.09 497.34 197.58 561.62 197.58 561.62 L 238.97 589.87 C 250.89 572.86 261.65 555.07 271.18 536.61 C 283.41 511.02 269.79 487.79 248.72 492.62 Z" fill="#429cfd" fill-rule="nonzero" node-id="642" stroke="none" target-height="102.07901" target-width="85.834" target-x="197.576" target-y="487.793"/><path d="M 278.83 494.18 C 276.46 489.01 273.89 483.10 279.23 481.26 C 285.13 479.23 317.45 477.14 328.59 480.95 C 330.04 481.35 331.41 482.03 332.60 482.95 C 333.80 483.88 334.80 485.03 335.55 486.35 C 336.30 487.66 336.78 489.11 336.96 490.60 C 337.15 492.10 337.04 493.62 336.64 495.08 L 336.64 495.28 L 278.83 494.18 Z" fill="#263238" fill-rule="nonzero" node-id="644" stroke="none" target-height="18.138977" target-width="63.264008" target-x="273.887" target-y="477.14"/><path d="M 261.46 529.75 L 232.04 585.12 L 238.97 589.87 C 238.97 589.87 252.30 571.31 261.57 555.26 L 261.46 529.75 Z" fill="#000000" fill-opacity="0.2" fill-rule="nonzero" group-id="23" node-id="648" stroke="none" target-height="60.122986" target-width="29.52501" target-x="232.045" target-y="529.748"/><path d="M 374.07 520.91 C 378.54 543.51 368.11 597.19 368.23 684.77 L 250.63 684.77 C 249.87 667.09 262.76 625.16 246.74 541.64 C 246.23 538.82 246.00 493.19 248.71 492.71 C 260.10 490.72 271.59 489.36 283.13 488.64 C 299.78 487.68 316.48 487.68 333.13 488.64 C 339.94 489.35 350.65 493.56 357.43 495.99 C 367.97 499.72 371.93 509.80 374.07 520.91 Z" fill="#429cfd" fill-rule="nonzero" node-id="651" stroke="none" target-height="197.094" target-width="132.536" target-x="246.002" target-y="487.68"/><path d="M 343.00 543.37 C 346.05 561.93 358.23 586.45 370.35 600.86 C 370.83 590.32 371.90 579.30 371.87 570.86 L 343.00 543.37 Z" fill="#000000" fill-opacity="0.2" fill-rule="nonzero" group-id="24" node-id="655" stroke="none" target-height="57.496033" target-width="28.902985" target-x="342.996" target-y="543.365"/><path d="M 334.52 515.45 C 331.69 536.27 372.66 589.42 372.66 589.42 L 413.88 561.17 C 413.88 561.17 402.44 531.87 383.20 512.65 C 361.36 490.67 337.82 492.85 334.52 515.45 Z" fill="#429cfd" fill-rule="nonzero" node-id="658" stroke="none" target-height="98.744995" target-width="82.188995" target-x="331.693" target-y="490.674"/><path d="M 469.34 976.35 L 491.32 976.35 L 496.33 925.41 L 474.35 925.41 L 469.34 976.35 Z" fill="#b55b52" fill-rule="nonzero" node-id="660" stroke="none" target-height="50.94098" target-width="26.981995" target-x="469.344" target-y="925.406"/><path d="M 495.99 928.49 L 493.44 954.73 L 471.44 954.73 L 474.01 928.49 L 495.99 928.49 Z" fill="#000000" fill-opacity="0.2" fill-rule="nonzero" group-id="25" node-id="664" stroke="none" target-height="26.247986" target-width="24.552002" target-x="471.436" target-y="928.486"/><path d="M 382.63 976.35 L 404.62 976.35 L 415.66 925.41 L 393.68 925.41 L 382.63 976.35 Z" fill="#b55b52" fill-rule="nonzero" node-id="667" stroke="none" target-height="50.94098" target-width="33.027985" target-x="382.635" target-y="925.406"/><path d="M 393.20 928.12 L 415.18 928.12 L 409.48 954.37 L 387.49 954.37 L 393.20 928.12 Z" fill="#000000" fill-opacity="0.2" fill-rule="nonzero" group-id="26" node-id="671" stroke="none" target-height="26.24701" target-width="27.688019" target-x="387.494" target-y="928.119"/><path d="M 492.57 966.46 L 468.58 966.46 C 468.08 966.52 467.62 966.75 467.28 967.11 C 466.93 967.47 466.73 967.94 466.69 968.44 L 462.34 993.58 C 462.09 994.56 462.19 995.59 462.62 996.50 C 463.06 997.41 463.80 998.14 464.71 998.55 C 464.97 998.60 465.24 998.60 465.50 998.55 C 474.15 998.38 486.66 997.71 497.54 997.71 C 510.28 997.71 521.27 998.58 536.19 998.58 C 545.23 998.58 547.75 986.77 543.96 985.73 C 526.75 980.87 512.71 980.36 497.85 968.47 C 496.37 967.21 494.51 966.50 492.57 966.46 Z" fill="#263238" fill-rule="nonzero" node-id="674" stroke="none" target-height="32.137024" target-width="85.659" target-x="462.088" target-y="966.459"/><path d="M 510.03 974.62 C 512.86 974.62 515.68 974.23 516.50 972.96 C 516.73 972.62 516.86 972.22 516.86 971.81 C 516.86 971.40 516.73 971.00 516.50 970.67 C 516.12 970.07 515.54 969.64 514.86 969.45 C 511.19 968.47 503.56 972.84 503.19 973.04 C 503.10 973.09 503.02 973.17 502.97 973.27 C 502.93 973.36 502.91 973.47 502.94 973.58 C 502.95 973.68 503.00 973.78 503.07 973.85 C 503.14 973.93 503.23 973.98 503.33 974.00 C 505.54 974.42 507.78 974.63 510.03 974.62 Z M 513.53 970.36 L 514.52 970.36 C 514.73 970.40 514.93 970.49 515.11 970.62 C 515.28 970.74 515.43 970.90 515.54 971.09 C 515.91 971.74 515.79 972.05 515.54 972.22 C 514.52 973.66 508.96 973.69 504.86 973.10 C 507.55 971.65 510.50 970.71 513.53 970.33 L 513.53 970.36 Z" fill="#429cfd" fill-rule="nonzero" node-id="676" stroke="none" target-height="6.1640015" target-width="13.94397" target-x="502.914" target-y="968.465"/><path d="M 503.39 974.00 L 503.62 974.00 C 506.27 972.81 511.53 968.07 511.10 965.52 C 511.10 964.93 510.59 964.23 509.18 964.06 C 508.16 963.98 507.14 964.30 506.36 964.96 C 503.53 967.25 502.96 973.18 502.94 973.44 C 502.92 973.53 502.94 973.62 502.97 973.70 C 503.00 973.79 503.06 973.86 503.13 973.92 C 503.21 973.97 503.30 974.00 503.39 974.00 Z M 508.76 965.10 L 509.07 965.10 C 510.00 965.10 510.06 965.58 510.08 965.70 C 510.34 967.19 506.75 970.92 504.04 972.53 C 504.27 970.04 505.25 967.69 506.86 965.78 C 507.40 965.35 508.07 965.11 508.76 965.10 Z" fill="#429cfd" fill-rule="nonzero" node-id="678" stroke="none" target-height="10.021973" target-width="8.60199" target-x="502.924" target-y="963.979"/><path d="M 406.17 966.46 L 381.48 966.46 C 380.98 966.52 380.52 966.75 380.18 967.11 C 379.84 967.47 379.64 967.94 379.61 968.44 L 375.26 993.58 C 375.02 994.58 375.15 995.62 375.61 996.54 C 376.07 997.46 376.83 998.18 377.77 998.58 C 378.01 998.61 378.25 998.61 378.48 998.58 C 387.10 998.41 391.31 997.74 402.16 997.74 C 408.85 997.74 417.41 998.61 426.65 998.61 C 435.89 998.61 437.08 986.80 433.29 985.75 C 416.34 980.95 415.18 974.45 409.76 968.01 C 409.31 967.51 408.75 967.11 408.13 966.84 C 407.51 966.57 406.84 966.44 406.17 966.46 Z" fill="#263238" fill-rule="nonzero" node-id="680" stroke="none" target-height="32.169006" target-width="62.054016" target-x="375.024" target-y="966.442"/><path d="M 419.08 977.42 C 420.01 977.55 420.96 977.49 421.87 977.24 C 422.78 976.99 423.63 976.56 424.37 975.98 C 424.62 975.62 424.76 975.19 424.76 974.75 C 424.76 974.31 424.62 973.88 424.37 973.52 C 424.20 973.21 423.96 972.94 423.68 972.73 C 423.40 972.52 423.07 972.38 422.73 972.31 C 419.51 971.54 413.43 975.70 413.18 975.87 C 413.10 975.93 413.03 976.01 412.99 976.11 C 412.95 976.20 412.94 976.30 412.95 976.40 C 412.97 976.50 413.01 976.59 413.08 976.66 C 413.16 976.74 413.25 976.78 413.35 976.80 C 415.23 977.22 417.15 977.42 419.08 977.42 Z M 421.91 973.24 L 422.53 973.24 C 422.73 973.28 422.92 973.36 423.08 973.47 C 423.25 973.59 423.39 973.74 423.49 973.92 C 423.97 974.79 423.69 975.13 423.49 975.27 C 422.56 976.49 418.06 976.52 414.76 975.98 C 416.88 974.52 419.31 973.56 421.85 973.15 L 421.91 973.24 Z" fill="#429cfd" fill-rule="nonzero" node-id="682" stroke="none" target-height="6.005005" target-width="11.826019" target-x="412.939" target-y="971.544"/><path d="M 413.63 976.83 C 415.92 975.58 420.32 970.78 419.84 968.35 C 419.77 967.96 419.56 967.61 419.26 967.36 C 418.96 967.11 418.57 966.97 418.18 966.97 C 417.78 966.93 417.39 966.97 417.01 967.09 C 416.63 967.20 416.28 967.39 415.97 967.64 C 413.43 969.74 412.89 976.12 412.87 976.35 C 412.86 976.44 412.88 976.54 412.93 976.62 C 412.97 976.71 413.04 976.78 413.12 976.83 L 413.63 976.83 Z M 418.06 967.93 L 418.29 967.93 C 418.97 967.93 419.02 968.32 419.05 968.47 C 419.34 969.90 416.51 973.55 414.25 975.27 C 414.43 972.77 415.33 970.38 416.85 968.38 C 417.19 968.09 417.62 967.93 418.06 967.93 Z" fill="#429cfd" fill-rule="nonzero" node-id="684" stroke="none" target-height="9.89801" target-width="7.4630127" target-x="412.862" target-y="966.929"/><path d="M 332.99 684.72 C 332.99 684.72 437.11 727.72 458.64 760.75 C 445.84 844.77 422.87 940.49 422.87 940.49 L 383.71 940.49 C 383.77 899.08 387.16 857.73 393.85 816.86 C 399.50 714.16 214.67 820.42 250.58 684.72 L 332.99 684.72 Z" fill="#263238" fill-rule="nonzero" node-id="686" stroke="none" target-height="255.776" target-width="243.967" target-x="214.67" target-y="684.717"/><path d="M 404.98 755.61 C 397.69 756.03 390.43 756.87 383.23 758.12 L 360.43 761.62 C 372.19 771.50 384.60 780.59 397.58 788.80 C 405.46 793.80 414.05 798.61 423.35 798.63 C 433.80 798.63 462.17 785.24 457.48 771.31 C 452.79 757.38 416.85 755.10 404.98 755.61 Z" fill="#000000" fill-opacity="0.3" fill-rule="nonzero" group-id="27" node-id="690" stroke="none" target-height="43.539" target-width="101.73999" target-x="360.428" target-y="755.096"/><path d="M 368.25 684.72 C 368.25 684.72 464.49 697.15 517.54 727.35 C 533.88 736.65 531.67 766.51 531.16 786.17 C 530.02 838.94 519.90 891.13 501.21 940.49 L 468.50 940.49 C 468.50 940.49 470.16 887.18 469.06 801.15 C 468.72 775.35 416.65 766.85 365.77 763.85 C 344.22 762.50 323.48 755.15 305.89 742.63 C 288.30 730.12 274.55 712.93 266.20 693.02 L 262.73 684.72 L 368.25 684.72 Z" fill="#263238" fill-rule="nonzero" node-id="693" stroke="none" target-height="255.776" target-width="271.146" target-x="262.729" target-y="684.717"/><path d="M 509.15 931.73 C 509.32 931.73 507.03 947.19 507.03 947.19 L 461.83 947.19 L 460.59 933.40 L 509.15 931.73 Z" fill="#429cfd" fill-rule="nonzero" node-id="695" stroke="none" target-height="15.455017" target-width="48.737" target-x="460.586" target-y="931.734"/><path d="M 426.65 931.73 C 426.82 931.73 422.50 947.19 422.50 947.19 L 377.30 947.19 L 378.11 933.40 L 426.65 931.73 Z" fill="#429cfd" fill-rule="nonzero" node-id="697" stroke="none" target-height="15.455017" target-width="49.527985" target-x="377.295" target-y="931.734"/><path d="M 305.19 762.70 L 272.79 1001.46 L 266.94 1000.64 L 291.94 760.89 L 305.19 762.70 Z" fill="#429cfd" fill-rule="nonzero" node-id="699" stroke="none" target-height="240.573" target-width="38.253998" target-x="266.938" target-y="760.887"/><path d="M 304.03 771.26 L 272.79 1001.46 L 266.94 1000.64 L 290.87 771.20 L 304.03 771.26 Z" fill="#000000" fill-opacity="0.4" fill-rule="nonzero" group-id="28" node-id="703" stroke="none" target-height="230.26105" target-width="37.09601" target-x="266.938" target-y="771.199"/><path d="M 419.11 771.23 L 235.46 771.23 C 235.46 768.48 236.00 765.75 237.06 763.21 C 238.11 760.66 239.66 758.35 241.60 756.40 C 243.55 754.46 245.86 752.91 248.40 751.86 C 250.95 750.81 253.67 750.26 256.43 750.26 L 398.14 750.26 C 400.90 750.26 403.62 750.81 406.17 751.86 C 408.71 752.91 411.02 754.46 412.97 756.40 C 414.92 758.35 416.46 760.66 417.51 763.21 C 418.57 765.75 419.11 768.48 419.11 771.23 Z" fill="#429cfd" fill-rule="nonzero" node-id="706" stroke="none" target-height="20.96405" target-width="183.64601" target-x="235.463" target-y="750.264"/><path d="M 419.11 771.23 L 235.46 771.23 C 235.46 768.48 236.00 765.75 237.06 763.21 C 238.11 760.66 239.66 758.35 241.60 756.40 C 243.55 754.46 245.86 752.91 248.40 751.86 C 250.95 750.81 253.67 750.26 256.43 750.26 L 398.14 750.26 C 400.90 750.26 403.62 750.81 406.17 751.86 C 408.71 752.91 411.02 754.46 412.97 756.40 C 414.92 758.35 416.46 760.66 417.51 763.21 C 418.57 765.75 419.11 768.48 419.11 771.23 Z" fill="#ffffff" fill-opacity="0.7" fill-rule="nonzero" group-id="29" node-id="710" stroke="none" target-height="20.96405" target-width="183.64601" target-x="235.463" target-y="750.264"/><path d="M 243.97 771.20 L 216.28 1003.36 L 222.21 1003.36 L 257.33 771.20 L 243.97 771.20 Z" fill="#429cfd" fill-rule="nonzero" node-id="713" stroke="none" target-height="232.16101" target-width="41.051987" target-x="216.279" target-y="771.199"/><path d="M 410.61 771.20 L 438.29 1003.36 L 432.36 1003.36 L 397.27 771.20 L 410.61 771.20 Z" fill="#429cfd" fill-rule="nonzero" node-id="715" stroke="none" target-height="232.16101" target-width="41.02301" target-x="397.27" target-y="771.199"/><path d="M 410.61 771.20 L 438.29 1003.36 L 432.36 1003.36 L 397.27 771.20 L 410.61 771.20 Z" fill="#000000" fill-opacity="0.4" fill-rule="nonzero" group-id="30" node-id="719" stroke="none" target-height="232.16101" target-width="41.02301" target-x="397.27" target-y="771.199"/><path d="M 373.56 771.20 L 374.10 1003.36 L 368.20 1003.36 L 360.20 771.20 L 373.56 771.20 Z" fill="#429cfd" fill-rule="nonzero" node-id="722" stroke="none" target-height="232.16101" target-width="13.901001" target-x="360.201" target-y="771.199"/></svg>