<?xml version="1.0" standalone="no"?><!DOCTYPE svg PUBLIC "-//W3C//DTD SVG 1.1//EN" "http://www.w3.org/Graphics/SVG/1.1/DTD/svg11.dtd"><svg t="1717047874418" class="icon" viewBox="0 0 1024 1024" version="1.1" xmlns="http://www.w3.org/2000/svg" p-id="6524" xmlns:xlink="http://www.w3.org/1999/xlink" width="200" height="200"><path d="M893.16864 1006.46912 128.27648 1006.46912c-60.3136 0-109.29664-48.89088-109.29664-109.30176L18.97984 132.2752c0-60.41088 48.88576-109.29664 109.29664-109.29664l764.89216 0c60.31872 0 109.29664 48.88576 109.29664 109.29664l0 764.89216C1002.4704 957.57824 953.57952 1006.46912 893.16864 1006.46912L893.16864 1006.46912zM947.81952 186.92608c0-60.3136-48.88576-109.29664-109.29664-109.29664L182.93248 77.62944c-60.3136 0-109.29664 48.88576-109.29664 109.29664l0 655.6928c0 60.30848 48.88576 109.29664 109.29664 109.29664l655.68768 0c60.3136 0 109.30688-48.88576 109.30688-109.29664L947.92704 186.92608 947.81952 186.92608 947.81952 186.92608zM756.59264 541.99808l-218.5984 0 0 218.59328c0 15.0784-12.19584 27.27424-27.27424 27.27424-15.07328 0-27.27424-12.19584-27.27424-27.27424l0-218.59328L264.85248 541.99808c-15.0784 0-27.27424-12.20096-27.27424-27.27424 0-15.0784 12.19584-27.27936 27.27424-27.27936l218.59328 0L483.44576 268.8512c0-15.0784 12.20096-27.27424 27.27424-27.27424 15.0784 0 27.27424 12.19584 27.27424 27.27424l0 218.5984 218.5984 0c15.0784 0 27.27424 12.20096 27.27424 27.27936C783.872 529.80224 771.67616 541.99808 756.59264 541.99808L756.59264 541.99808z" fill="#262536" p-id="6525"></path></svg>