<?xml version="1.0" encoding="UTF-8"?>
<svg width="640px" height="640px" viewBox="0 0 640 640" version="1.1" xmlns="http://www.w3.org/2000/svg" xmlns:xlink="http://www.w3.org/1999/xlink">
    <title>画板备份 2@2x</title>
    <defs>
        <linearGradient x1="8.16563565%" y1="13.8702002%" x2="55.8879276%" y2="82.4104207%" id="linearGradient-1">
            <stop stop-color="#6FBDF9" offset="0%"></stop>
            <stop stop-color="#AD40F5" offset="100%"></stop>
        </linearGradient>
        <path d="M97.2242996,126.560637 L320.215671,164.331329 L320.215671,164.331329 L543.175777,126.565933 C551.888235,125.090201 560.147396,130.956727 561.623128,139.669185 C562.228945,143.245819 561.60138,146.92216 559.843356,150.095277 L333.998399,557.730374 C329.715959,565.459892 319.978345,568.254301 312.248828,563.971862 C309.620708,562.515786 307.455675,560.349137 306.00156,557.719932 L80.5509402,150.079539 C76.2742684,142.346829 79.0759406,132.611302 86.8086503,128.33463 C89.9794959,126.580954 93.6517019,125.955504 97.2242996,126.560637 Z" id="path-2"></path>
        <filter x="-25.0%" y="-26.6%" width="150.0%" height="156.6%" filterUnits="objectBoundingBox" id="filter-3">
            <feMorphology radius="10.5" operator="dilate" in="SourceAlpha" result="shadowSpreadOuter1"></feMorphology>
            <feOffset dx="0" dy="14" in="shadowSpreadOuter1" result="shadowOffsetOuter1"></feOffset>
            <feGaussianBlur stdDeviation="34.5" in="shadowOffsetOuter1" result="shadowBlurOuter1"></feGaussianBlur>
            <feColorMatrix values="0 0 0 0 0   0 0 0 0 0   0 0 0 0 0  0 0 0 0.18 0" type="matrix" in="shadowBlurOuter1"></feColorMatrix>
        </filter>
        <linearGradient x1="36.3640359%" y1="0%" x2="58.1724373%" y2="90.982441%" id="linearGradient-4">
            <stop stop-color="#F9DB58" offset="0%"></stop>
            <stop stop-color="#F6C448" offset="100%"></stop>
        </linearGradient>
    </defs>
    <g id="画板备份-2" stroke="none" stroke-width="1" fill="none" fill-rule="evenodd">
        <g id="路径-2">
            <use fill="black" fill-opacity="1" filter="url(#filter-3)" xlink:href="#path-2"></use>
            <use fill="url(#linearGradient-1)" fill-rule="evenodd" xlink:href="#path-2"></use>
        </g>
        <path d="M311.692837,352.3 C284.88843,352.3 258.849862,346.428558 233.577135,334.685675 L233.577135,281.8427 C244.809458,290.011662 256.871442,296.074564 269.763085,300.031405 C282.654729,303.988246 295.482553,305.966667 308.246556,305.966667 C322.542241,305.966667 333.519284,302.839486 341.177686,296.585124 C348.836088,290.330762 352.665289,281.07686 352.665289,268.823416 C352.665289,255.038292 347.942608,244.635629 338.497245,237.615427 C329.051882,230.595225 316.543159,227.085124 300.971074,227.085124 L262.679063,227.085124 L262.679063,188.410193 L297.141873,188.410193 C312.458678,188.410193 324.329201,185.027732 332.753444,178.26281 C341.177686,171.497888 345.389807,162.116345 345.389807,150.118182 C345.389807,140.162259 341.560606,132.376217 333.902204,126.760055 C326.243802,121.143893 316.032599,118.335813 303.268595,118.335813 C294.078512,118.335813 283.867309,119.548393 272.634986,121.973554 C261.402663,124.398714 251.19146,127.781175 242.001377,132.120937 L242.001377,90.7655647 C252.21258,85.4046832 263.636364,81.320202 276.272727,78.5121212 C288.909091,75.7040404 301.481635,74.3 313.990358,74.3 C340.539486,74.3 361.600092,80.6181818 377.172176,93.2545455 C392.744261,105.890909 400.657943,123.058494 400.913223,144.7573 C400.913223,158.287144 397.339302,170.412948 390.19146,181.134711 C383.043618,191.856474 372.832415,200.280716 359.557851,206.407438 C374.874656,212.0236 386.681359,220.575482 394.977961,232.063085 C403.274564,243.550689 407.422865,257.080533 407.422865,272.652617 C407.422865,288.224702 403.529844,302.009826 395.743802,314.007989 C387.957759,326.006152 376.789256,335.387695 362.238292,342.152617 C347.687328,348.917539 330.838843,352.3 311.692837,352.3 Z" id="路径" fill="url(#linearGradient-4)"></path>
    </g>
</svg>